<svg xmlns="http://www.w3.org/2000/svg" xmlns:xlink="http://www.w3.org/1999/xlink" width="500" zoomAndPan="magnify" viewBox="0 0 375 149.999998" height="200" preserveAspectRatio="xMidYMid meet" version="1.0"><defs><clipPath id="1cfcc7cbab"><path d="M 126.835938 1.28125 L 231.085938 1.28125 L 231.085938 101.03125 L 126.835938 101.03125 Z M 126.835938 1.28125 " clip-rule="nonzero"/></clipPath><clipPath id="5b60872818"><path d="M 251.195312 15 L 374.945312 15 L 374.945312 87.75 L 251.195312 87.75 Z M 251.195312 15 " clip-rule="nonzero"/></clipPath><clipPath id="e988edcc92"><path d="M 59 18 L 106.621094 18 L 106.621094 94 L 59 94 Z M 59 18 " clip-rule="nonzero"/></clipPath><clipPath id="fa5bbb0569"><path d="M 0.121094 50 L 24 50 L 24 56 L 0.121094 56 Z M 0.121094 50 " clip-rule="nonzero"/></clipPath><clipPath id="28e08c4f3b"><path d="M 0.121094 69 L 41 69 L 41 75 L 0.121094 75 Z M 0.121094 69 " clip-rule="nonzero"/></clipPath><clipPath id="0922ce8161"><path d="M 0.121094 86 L 59 86 L 59 92 L 0.121094 92 Z M 0.121094 86 " clip-rule="nonzero"/></clipPath></defs><g clip-path="url(#1cfcc7cbab)"><path fill="#ffffff" d="M 178.132812 1.28125 C 176.726562 1.28125 175.652344 2.355469 175.652344 3.753906 L 175.652344 6.230469 L 146.703125 6.230469 C 145.546875 6.230469 144.472656 7.054688 144.304688 8.207031 L 134.628906 56.269531 C 133.804688 60.390625 134.878906 64.679688 137.523438 67.894531 C 140.171875 71.191406 144.140625 73.003906 148.359375 73.003906 L 212.289062 73.003906 C 218.492188 73.003906 223.539062 67.976562 223.539062 61.792969 C 223.539062 57.09375 220.558594 52.886719 216.257812 51.238281 L 195.335938 43.40625 C 195.5 42.914062 195.5 42.417969 195.25 41.925781 L 193.515625 37.308594 C 193.265625 36.730469 192.855469 36.152344 192.191406 35.90625 C 191.613281 35.660156 191.035156 35.578125 190.375 35.824219 L 190.375 27.664062 C 191.777344 27.664062 192.855469 26.589844 192.855469 25.191406 L 192.855469 20.242188 C 192.855469 18.839844 191.777344 17.769531 190.375 17.769531 L 190.375 12 C 190.539062 6.0625 185.742188 1.28125 179.785156 1.28125 Z M 163.246094 20.242188 L 185.574219 20.242188 C 186.980469 20.242188 188.058594 21.316406 188.058594 22.714844 C 188.058594 24.117188 186.980469 25.191406 185.574219 25.191406 L 163.246094 25.191406 C 161.839844 25.191406 160.765625 24.117188 160.765625 22.714844 C 160.765625 21.316406 161.839844 20.242188 163.246094 20.242188 Z M 186.488281 39.679688 C 187.648438 39.5625 188.769531 40.273438 189.132812 41.429688 C 189.546875 42.75 188.882812 44.148438 187.5625 44.5625 L 167.214844 51.15625 C 166.96875 51.238281 166.71875 51.238281 166.472656 51.238281 C 165.394531 51.238281 164.484375 50.582031 164.074219 49.507812 C 163.660156 48.191406 164.320312 46.789062 165.644531 46.375 L 185.988281 39.78125 C 186.15625 39.730469 186.320312 39.695312 186.488281 39.679688 Z M 148.441406 63.109375 L 211.546875 63.109375 C 212.953125 63.109375 214.027344 64.183594 214.027344 65.585938 C 214.027344 66.984375 212.953125 68.058594 211.546875 68.058594 L 148.441406 68.058594 C 147.035156 68.058594 145.960938 66.984375 145.960938 65.585938 C 145.960938 64.183594 147.035156 63.109375 148.441406 63.109375 Z M 139.261719 76.300781 C 132.398438 76.300781 126.855469 81.824219 126.855469 88.667969 C 126.855469 95.507812 132.398438 101.03125 139.261719 101.03125 C 146.125 101.03125 151.667969 95.507812 151.667969 88.667969 C 151.667969 81.824219 146.125 76.300781 139.261719 76.300781 Z M 165.726562 76.300781 C 158.863281 76.300781 153.320312 81.824219 153.320312 88.667969 C 153.320312 95.507812 158.863281 101.03125 165.726562 101.03125 C 172.589844 101.03125 178.132812 95.507812 178.132812 88.667969 C 178.132812 81.824219 172.589844 76.300781 165.726562 76.300781 Z M 192.191406 76.300781 C 185.328125 76.300781 179.785156 81.824219 179.785156 88.667969 C 179.785156 95.507812 185.328125 101.03125 192.191406 101.03125 C 199.054688 101.03125 204.597656 95.507812 204.597656 88.667969 C 204.597656 81.824219 199.054688 76.300781 192.191406 76.300781 Z M 218.65625 76.300781 C 211.792969 76.300781 206.25 81.824219 206.25 88.667969 C 206.25 95.507812 211.792969 101.03125 218.65625 101.03125 C 225.523438 101.03125 231.0625 95.507812 231.0625 88.667969 C 231.0625 81.824219 225.523438 76.300781 218.65625 76.300781 Z M 139.261719 81.246094 C 143.394531 81.246094 146.703125 84.542969 146.703125 88.667969 C 146.703125 92.789062 143.394531 96.085938 139.261719 96.085938 C 135.125 96.085938 131.816406 92.789062 131.816406 88.667969 C 131.816406 84.542969 135.125 81.246094 139.261719 81.246094 Z M 165.726562 81.246094 C 169.863281 81.246094 173.171875 84.542969 173.171875 88.667969 C 173.171875 92.789062 169.863281 96.085938 165.726562 96.085938 C 161.589844 96.085938 158.28125 92.789062 158.28125 88.667969 C 158.28125 84.542969 161.589844 81.246094 165.726562 81.246094 Z M 192.191406 81.246094 C 196.328125 81.246094 199.636719 84.542969 199.636719 88.667969 C 199.636719 92.789062 196.328125 96.085938 192.191406 96.085938 C 188.058594 96.085938 184.75 92.789062 184.75 88.667969 C 184.75 84.542969 188.058594 81.246094 192.191406 81.246094 Z M 218.65625 81.246094 C 222.792969 81.246094 226.101562 84.542969 226.101562 88.667969 C 226.101562 92.789062 222.792969 96.085938 218.65625 96.085938 C 214.523438 96.085938 211.214844 92.789062 211.214844 88.667969 C 211.214844 84.542969 214.523438 81.246094 218.65625 81.246094 Z M 218.65625 81.246094 " fill-opacity="1" fill-rule="nonzero"/></g><g clip-path="url(#5b60872818)"><path fill="#ffffff" d="M 351.371094 40.785156 C 349.019531 40.785156 346.75 41.140625 344.605469 41.792969 L 337.242188 23.296875 L 347.058594 19.210938 C 348.097656 18.78125 348.589844 17.589844 348.160156 16.546875 C 347.726562 15.507812 346.539062 15.011719 345.503906 15.445312 L 333.832031 20.300781 C 333.753906 20.335938 333.6875 20.378906 333.613281 20.417969 C 333.570312 20.441406 333.523438 20.460938 333.484375 20.492188 C 333.417969 20.535156 333.359375 20.585938 333.300781 20.636719 C 333.257812 20.675781 333.210938 20.707031 333.171875 20.746094 C 333.121094 20.796875 333.078125 20.855469 333.035156 20.914062 C 332.996094 20.957031 332.957031 21 332.921875 21.050781 C 332.882812 21.109375 332.855469 21.171875 332.820312 21.234375 C 332.792969 21.289062 332.761719 21.335938 332.738281 21.394531 C 332.710938 21.457031 332.695312 21.527344 332.675781 21.59375 C 332.65625 21.652344 332.632812 21.707031 332.621094 21.765625 C 332.605469 21.835938 332.605469 21.90625 332.597656 21.976562 C 332.589844 22.035156 332.578125 22.097656 332.578125 22.15625 C 332.578125 22.230469 332.589844 22.300781 332.59375 22.375 C 332.601562 22.433594 332.601562 22.496094 332.613281 22.554688 C 332.625 22.628906 332.652344 22.703125 332.675781 22.773438 C 332.691406 22.828125 332.699219 22.886719 332.722656 22.941406 L 332.730469 22.964844 L 333.980469 26.101562 L 306.246094 37.292969 L 299.1875 36.636719 L 294.296875 21.109375 L 302.132812 21.109375 C 303.257812 21.109375 304.164062 20.199219 304.164062 19.074219 C 304.164062 17.949219 303.257812 17.035156 302.132812 17.035156 L 284.945312 17.035156 C 283.820312 17.035156 282.914062 17.949219 282.914062 19.074219 C 282.914062 20.199219 283.820312 21.109375 284.945312 21.109375 L 290.035156 21.109375 L 297.109375 43.566406 L 292.554688 46.792969 C 288.253906 41.757812 281.882812 38.546875 274.769531 38.546875 C 261.855469 38.546875 251.347656 49.082031 251.347656 62.035156 C 251.347656 74.984375 261.855469 85.519531 274.769531 85.519531 C 285.824219 85.519531 295.089844 77.789062 297.535156 67.445312 L 299.753906 67.78125 C 300.109375 69.328125 301.023438 70.65625 302.273438 71.546875 L 300.9375 76.050781 C 300.617188 77.132812 301.226562 78.265625 302.304688 78.585938 C 302.496094 78.644531 302.691406 78.671875 302.882812 78.671875 C 303.757812 78.671875 304.566406 78.097656 304.832031 77.214844 L 306.171875 72.699219 C 309.554688 72.566406 312.273438 69.785156 312.273438 66.359375 C 312.273438 65.339844 312.011719 64.390625 311.585938 63.539062 L 336.164062 31.585938 L 340.839844 43.320312 C 333.207031 47.195312 327.949219 55.121094 327.949219 64.269531 C 327.949219 77.222656 338.457031 87.757812 351.371094 87.757812 C 364.285156 87.757812 374.792969 77.222656 374.792969 64.269531 C 374.792969 51.320312 364.285156 40.785156 351.371094 40.785156 Z M 300.519531 40.855469 L 300.886719 40.886719 L 300.59375 41.09375 Z M 274.769531 81.445312 C 264.09375 81.445312 255.410156 72.738281 255.410156 62.03125 C 255.410156 51.328125 264.09375 42.621094 274.769531 42.621094 C 280.515625 42.621094 285.667969 45.160156 289.21875 49.160156 L 273.59375 60.238281 C 272.917969 60.714844 272.597656 61.5625 272.789062 62.367188 C 272.980469 63.179688 273.640625 63.789062 274.460938 63.914062 L 293.503906 66.828125 C 291.367188 75.214844 283.789062 81.445312 274.769531 81.445312 Z M 294.125 62.035156 C 294.125 62.289062 294.097656 62.539062 294.085938 62.792969 L 280.054688 60.648438 L 291.589844 52.46875 C 293.195312 55.296875 294.125 58.554688 294.125 62.035156 Z M 294.914062 50.113281 L 298.394531 47.644531 L 302.59375 60.96875 C 301.535156 61.628906 300.691406 62.582031 300.167969 63.722656 L 298.121094 63.410156 C 298.144531 62.953125 298.1875 62.5 298.1875 62.03125 C 298.1875 57.679688 296.980469 53.613281 294.914062 50.113281 Z M 305.929688 68.648438 C 304.667969 68.648438 303.644531 67.621094 303.644531 66.359375 C 303.644531 65.097656 304.667969 64.070312 305.929688 64.070312 C 306.554688 64.070312 307.121094 64.324219 307.53125 64.734375 C 307.550781 64.757812 307.566406 64.777344 307.585938 64.796875 C 307.96875 65.207031 308.210938 65.753906 308.210938 66.359375 C 308.210938 67.621094 307.1875 68.648438 305.929688 68.648438 Z M 310.414062 58.390625 L 310.925781 56.667969 C 311.246094 55.589844 310.632812 54.457031 309.554688 54.136719 C 308.480469 53.808594 307.351562 54.429688 307.03125 55.507812 L 306.109375 58.605469 L 301.878906 45.175781 L 307.527344 41.167969 L 330.921875 31.730469 Z M 351.371094 83.683594 C 340.699219 83.683594 332.015625 74.976562 332.015625 64.269531 C 332.015625 56.835938 336.210938 50.371094 342.347656 47.109375 L 349.484375 65.027344 C 349.800781 65.824219 350.566406 66.308594 351.371094 66.308594 C 351.621094 66.308594 351.878906 66.261719 352.125 66.164062 C 353.167969 65.746094 353.675781 64.558594 353.257812 63.515625 L 346.125 45.601562 C 347.796875 45.128906 349.550781 44.859375 351.371094 44.859375 C 362.042969 44.859375 370.726562 53.566406 370.726562 64.273438 C 370.726562 74.976562 362.046875 83.683594 351.371094 83.683594 Z M 351.371094 83.683594 " fill-opacity="1" fill-rule="nonzero"/></g><path fill="#ffffff" d="M 34.097656 11.324219 L 43.625 3.839844 C 45.230469 2.574219 47.601562 3.265625 48.28125 5.195312 L 50.800781 12.351562 C 51.574219 14.546875 50.035156 16.871094 47.714844 17.023438 C 44.679688 17.21875 40.164062 16.800781 34.464844 14.257812 C 33.28125 13.730469 33.078125 12.125 34.097656 11.324219 Z M 34.097656 11.324219 " fill-opacity="1" fill-rule="nonzero"/><path fill="#ffffff" d="M 27.152344 17.992188 C 27.191406 17.953125 27.226562 17.917969 27.261719 17.878906 C 28.113281 17.019531 29.363281 16.707031 30.523438 17.046875 L 34.730469 18.292969 C 37.84375 19.210938 41.050781 19.792969 44.289062 20.023438 L 51.792969 20.5625 C 53.347656 20.671875 54.671875 21.734375 55.117188 23.230469 L 58.554688 34.816406 C 59.410156 37.695312 59.84375 40.679688 59.84375 43.683594 L 59.84375 57.222656 C 59.84375 58.089844 58.738281 58.453125 58.222656 57.757812 L 46.652344 42.167969 C 44.289062 38.980469 41.628906 36.023438 38.707031 33.332031 L 27.335938 22.855469 C 25.9375 21.566406 25.832031 19.363281 27.152344 17.992188 Z M 27.152344 17.992188 " fill-opacity="1" fill-rule="nonzero"/><g clip-path="url(#e988edcc92)"><path fill="#ffffff" d="M 103.945312 81.953125 L 88.347656 61.484375 L 86.503906 54.234375 L 76.644531 55.722656 C 75.671875 55.871094 74.765625 55.199219 74.617188 54.226562 C 74.46875 53.253906 75.140625 52.347656 76.113281 52.199219 L 85.625 50.765625 L 83.453125 42.21875 L 74.125 43.628906 C 73.152344 43.777344 72.246094 43.105469 72.097656 42.132812 C 71.953125 41.160156 72.621094 40.253906 73.59375 40.105469 L 82.570312 38.75 L 77.714844 19.617188 C 77.386719 18.328125 75.820312 17.828125 74.808594 18.691406 C 69.777344 22.996094 64.507812 23.191406 61.402344 22.789062 C 60.132812 22.625 59.109375 23.816406 59.453125 25.050781 L 61.890625 33.878906 C 63.441406 39.496094 64.046875 45.332031 63.675781 51.144531 L 63.097656 60.238281 C 62.839844 64.28125 64.320312 68.242188 67.167969 71.128906 L 72.964844 77 C 78.09375 82.199219 84.25 86.277344 91.039062 88.972656 L 101.480469 93.121094 C 103.320312 93.851562 105.378906 92.777344 105.835938 90.851562 C 106.570312 87.753906 105.875 84.488281 103.945312 81.953125 Z M 103.945312 81.953125 " fill-opacity="1" fill-rule="nonzero"/></g><g clip-path="url(#fa5bbb0569)"><path fill="#ffffff" d="M 22.191406 55.808594 L 1.742188 55.808594 C 0.84375 55.808594 0.121094 55.082031 0.121094 54.1875 L 0.121094 52.179688 C 0.121094 51.285156 0.84375 50.558594 1.742188 50.558594 L 22.191406 50.558594 C 23.085938 50.558594 23.8125 51.285156 23.8125 52.179688 L 23.8125 54.1875 C 23.8125 55.082031 23.085938 55.808594 22.191406 55.808594 Z M 22.191406 55.808594 " fill-opacity="1" fill-rule="nonzero"/></g><g clip-path="url(#28e08c4f3b)"><path fill="#ffffff" d="M 38.417969 74.335938 L 1.742188 74.335938 C 0.84375 74.335938 0.121094 73.613281 0.121094 72.714844 L 0.121094 70.710938 C 0.121094 69.816406 0.84375 69.089844 1.742188 69.089844 L 38.417969 69.089844 C 39.3125 69.089844 40.039062 69.816406 40.039062 70.710938 L 40.039062 72.714844 C 40.039062 73.613281 39.3125 74.335938 38.417969 74.335938 Z M 38.417969 74.335938 " fill-opacity="1" fill-rule="nonzero"/></g><g clip-path="url(#0922ce8161)"><path fill="#ffffff" d="M 56.699219 91.800781 L 1.742188 91.800781 C 0.84375 91.800781 0.121094 91.070312 0.121094 90.175781 L 0.121094 88.171875 C 0.121094 87.273438 0.84375 86.550781 1.742188 86.550781 L 56.699219 86.550781 C 57.59375 86.550781 58.320312 87.273438 58.320312 88.171875 L 58.320312 90.175781 C 58.320312 91.070312 57.59375 91.800781 56.699219 91.800781 Z M 56.699219 91.800781 " fill-opacity="1" fill-rule="nonzero"/></g><path fill="#ffffff" d="M 98.316406 97.082031 C 98.171875 96.808594 97.921875 96.617188 97.621094 96.546875 C 94.132812 95.746094 71.808594 89.792969 57.824219 65.644531 C 45.097656 43.671875 28.882812 29.105469 23.933594 24.941406 C 23.0625 24.210938 21.757812 24.316406 21.023438 25.183594 C 12.574219 35.125 24.386719 46.550781 31.589844 52.128906 C 33.695312 53.753906 36.097656 54.917969 38.613281 55.769531 C 41.660156 56.800781 48 61.160156 58.179688 78.238281 C 71.050781 99.824219 91.703125 99.273438 97.488281 98.648438 C 98.238281 98.566406 98.675781 97.753906 98.316406 97.082031 Z M 26.667969 39.15625 C 25.648438 39.15625 24.828125 38.332031 24.828125 37.316406 C 24.828125 36.296875 25.652344 35.476562 26.667969 35.476562 C 27.683594 35.476562 28.507812 36.300781 28.507812 37.316406 C 28.507812 38.332031 27.683594 39.15625 26.667969 39.15625 Z M 31.773438 44.402344 C 30.757812 44.402344 29.933594 43.578125 29.933594 42.5625 C 29.933594 41.546875 30.757812 40.722656 31.773438 40.722656 C 32.789062 40.722656 33.613281 41.546875 33.613281 42.5625 C 33.613281 43.582031 32.789062 44.402344 31.773438 44.402344 Z M 31.773438 44.402344 " fill-opacity="1" fill-rule="nonzero"/><path stroke-linecap="butt" transform="matrix(0.75, 0, 0, 0.75, 0.750004, 127.124995)" fill="none" stroke-linejoin="miter" d="M 13.348954 6.125008 C 13.833329 2.526049 14.494787 0.208341 17.026037 0.208341 L 17.322912 0.208341 C 19.322912 0.208341 19.505204 1.802091 19.187496 4.203132 L 24.249996 4.203132 L 24.390621 3.161466 C 25.026038 -1.848951 22.546871 -4.16666 17.484371 -4.16666 C 11.885412 -4.16666 9.166662 -1.07291 8.208328 6.125008 L 8.072912 7.130216 C 7.114578 14.333341 9.619787 17.3698 15.218746 17.3698 C 19.885413 17.3698 22.890621 15.427091 23.484371 10.041674 L 23.510413 9.802091 L 18.437496 9.802091 C 18.203121 11.671883 17.432287 13.005216 15.640621 13.005216 L 15.348954 13.005216 C 12.95312 13.005216 12.739579 10.765633 13.218745 7.130216 Z M 37.078122 -4.16666 C 31.479163 -4.16666 28.760413 -1.07291 27.80208 6.125008 L 27.666663 7.130216 C 26.70833 14.333341 29.213538 17.3698 34.812497 17.3698 C 40.406247 17.3698 43.104164 14.281258 44.062497 7.078133 L 44.197914 6.072924 C 45.151039 -1.124993 42.671872 -4.16666 37.078122 -4.16666 Z M 34.942705 13.005216 C 32.546872 13.005216 32.33333 10.765633 32.812497 7.130216 L 32.942705 6.125008 C 33.42708 2.500007 34.223955 0.208341 36.619788 0.208341 L 36.911455 0.208341 C 39.317705 0.208341 39.531247 2.447924 39.046872 6.072924 L 38.916664 7.078133 C 38.437497 10.708341 37.635414 13.005216 35.234372 13.005216 Z M 64.666665 5.005216 L 63.999998 9.000008 L 62.96354 17.000008 L 68.02604 17.000008 L 70.74479 -3.796868 L 63.203123 -3.796868 L 58.640623 8.197924 L 57.229165 -3.796868 L 49.682289 -3.796868 L 46.963539 17.000008 L 52.026039 17.000008 L 53.067706 9.000008 L 53.473956 5.005216 L 54.885415 17.000008 L 60.104165 17.000008 Z M 78.687499 9.854174 L 80.791666 9.854174 C 84.3125 9.854174 88.369791 9.052091 89.135417 3.296882 L 89.21875 2.713549 C 89.989583 -3.046868 86.09375 -3.796868 82.583333 -3.796868 L 75.406249 -3.796868 L 72.687499 17.000008 L 77.749999 17.000008 Z M 79.249999 5.484383 L 79.911458 0.578132 L 82.229166 0.578132 C 83.21875 0.578132 84.260416 0.895841 84.072916 2.869799 L 84.046875 3.161466 C 83.859375 5.083341 82.557291 5.484383 81.567708 5.484383 Z M 93.9375 -3.796868 L 91.213542 17.000008 L 104.276042 17.000008 L 104.838542 12.625008 L 96.838542 12.625008 L 97.369792 8.578133 L 104.036459 8.578133 L 104.625001 4.203132 L 97.958334 4.203132 L 98.4375 0.578132 L 106.437501 0.578132 L 107.000001 -3.796868 Z M 119.635418 0.578132 L 124.296877 0.578132 L 124.854169 -3.796868 L 110.463543 -3.796868 L 109.906251 0.578132 L 114.56771 0.578132 L 112.41146 17.000008 L 117.47396 17.000008 Z M 133.791669 -3.796868 L 128.718752 -3.796868 L 126.00521 17.000008 L 131.067711 17.000008 Z M 146.828128 0.578132 L 151.489587 0.578132 L 152.046879 -3.796868 L 137.656253 -3.796868 L 137.098961 0.578132 L 141.755211 0.578132 L 139.604169 17.000008 L 144.66667 17.000008 Z M 160.979171 -3.796868 L 155.911462 -3.796868 L 153.19792 17.000008 L 158.260421 17.000008 Z M 173.29688 -4.16666 C 167.697921 -4.16666 164.979171 -1.07291 164.020838 6.125008 L 163.885421 7.130216 C 162.927088 14.333341 165.432296 17.3698 171.031255 17.3698 C 176.630213 17.3698 179.322922 14.281258 180.281255 7.078133 L 180.416672 6.072924 C 181.375005 -1.124993 178.89063 -4.16666 173.29688 -4.16666 Z M 171.161463 13.005216 C 168.76563 13.005216 168.552088 10.765633 169.031255 7.130216 L 169.161463 6.125008 C 169.645838 2.500007 170.442713 0.208341 172.838546 0.208341 L 173.130213 0.208341 C 175.536463 0.208341 175.750005 2.447924 175.26563 6.072924 L 175.135422 7.078133 C 174.656255 10.708341 173.854171 13.005216 171.45313 13.005216 Z M 201.635423 -3.796868 L 196.833339 -3.796868 L 195.848964 3.671882 L 195.473964 7.666674 L 191.234381 -3.796868 L 185.906256 -3.796868 L 183.182297 17.000008 L 187.979172 17.000008 L 188.942714 9.536466 L 189.338547 5.536466 L 193.583339 17.000008 L 198.916673 17.000008 Z M 228.609383 5.005216 L 227.942716 9.000008 L 226.906258 17.000008 L 231.968758 17.000008 L 234.692717 -3.796868 L 227.145841 -3.796868 L 222.583341 8.197924 L 221.171883 -3.796868 L 213.630215 -3.796868 L 210.906257 17.000008 L 215.968757 17.000008 L 217.010424 9.000008 L 217.416674 5.005216 L 218.828132 17.000008 L 224.046883 17.000008 Z M 239.354175 -3.796868 L 236.630217 17.000008 L 249.692718 17.000008 L 250.255218 12.625008 L 242.255217 12.625008 L 242.786467 8.578133 L 249.453134 8.578133 L 250.041676 4.203132 L 243.375009 4.203132 L 243.854176 0.578132 L 251.854176 0.578132 L 252.416676 -3.796868 Z M 256.81251 -3.796868 L 254.093759 17.000008 L 267.15626 17.000008 L 267.713552 12.625008 L 259.713551 12.625008 L 260.25001 8.578133 L 266.916677 8.578133 L 267.50001 4.203132 L 260.833343 4.203132 L 261.317718 0.578132 L 269.317719 0.578132 L 269.87501 -3.796868 Z M 282.515636 0.578132 L 287.171886 0.578132 L 287.734386 -3.796868 L 273.343761 -3.796868 L 272.781261 0.578132 L 277.442719 0.578132 L 275.286469 17.000008 L 280.354178 17.000008 Z M 296.109387 8.630216 C 298.932304 9.000008 299.44272 9.828133 299.328137 10.8698 L 299.302095 11.135425 C 299.197929 12.15105 298.427095 13.005216 296.69272 13.005216 L 296.427095 13.005216 C 294.697929 13.005216 293.921887 12.093758 294.213554 9.802091 L 289.151053 9.802091 L 289.093762 10.229174 C 288.479178 15.052091 291.093762 17.3698 296.16147 17.3698 C 301.062512 17.3698 303.994804 15.296883 304.427096 11.375008 L 304.479179 10.895841 C 304.927096 6.921883 302.953137 5.161466 298.50522 4.546882 C 295.75522 4.177091 295.307304 3.453132 295.41147 2.333341 L 295.437512 2.067716 C 295.546887 1.036466 296.401054 0.208341 297.864595 0.208341 L 298.13022 0.208341 C 300.000012 0.208341 300.531262 1.328132 300.208346 3.671882 L 305.281262 3.671882 L 305.359387 3.031257 C 305.942721 -1.713535 303.781262 -4.16666 298.588554 -4.16666 C 293.385428 -4.16666 290.69272 -1.661451 290.296887 2.015632 L 290.234387 2.500007 C 289.812512 6.255216 291.656262 8.041674 296.109387 8.630216 Z M 321.244805 6.125008 C 321.723972 2.526049 322.390638 0.208341 324.921889 0.208341 L 325.213555 0.208341 C 327.218764 0.208341 327.401055 1.802091 327.083347 4.203132 L 332.145847 4.203132 L 332.281264 3.161466 C 332.921889 -1.848951 330.437514 -4.16666 325.375014 -4.16666 C 319.776055 -4.16666 317.057305 -1.07291 316.098971 6.125008 L 315.963555 7.130216 C 315.005221 14.333341 317.515638 17.3698 323.109389 17.3698 C 327.776055 17.3698 330.786472 15.427091 331.375014 10.041674 L 331.401056 9.802091 L 326.333347 9.802091 C 326.098972 11.671883 325.32293 13.005216 323.536472 13.005216 L 323.239597 13.005216 C 320.843763 13.005216 320.630222 10.765633 321.114597 7.130216 Z M 344.968765 -4.16666 C 339.369806 -4.16666 336.651056 -1.07291 335.692723 6.125008 L 335.557306 7.130216 C 334.598973 14.333341 337.104181 17.3698 342.70314 17.3698 C 348.302098 17.3698 350.994807 14.281258 351.95314 7.078133 L 352.088557 6.072924 C 353.04689 -1.124993 350.567723 -4.16666 344.968765 -4.16666 Z M 342.833348 13.005216 C 340.437515 13.005216 340.223973 10.765633 340.70314 7.130216 L 340.833348 6.125008 C 341.317723 2.500007 342.119806 0.208341 344.51564 0.208341 L 344.807306 0.208341 C 347.208348 0.208341 347.42189 2.447924 346.942723 6.072924 L 346.812515 7.078133 C 346.32814 10.708341 345.531265 13.005216 343.125015 13.005216 Z M 372.562516 5.005216 L 371.890641 9.000008 L 370.854183 17.000008 L 375.916683 17.000008 L 378.640642 -3.796868 L 371.093766 -3.796868 L 366.531266 8.197924 L 365.119808 -3.796868 L 357.578141 -3.796868 L 354.85939 17.000008 L 359.921891 17.000008 L 360.963557 9.000008 L 361.364599 5.005216 L 362.776058 17.000008 L 368.000016 17.000008 Z M 398.286476 5.005216 L 397.614601 9.000008 L 396.578143 17.000008 L 401.640643 17.000008 L 404.364602 -3.796868 L 396.817726 -3.796868 L 392.255226 8.197924 L 390.843767 -3.796868 L 383.3021 -3.796868 L 380.58335 17.000008 L 385.645851 17.000008 L 386.687517 9.000008 L 387.088559 5.005216 L 388.500017 17.000008 L 393.723976 17.000008 Z M 414.010435 17.3698 C 420.036478 17.3698 421.927103 14.760425 422.484394 10.385424 L 424.354186 -3.796868 L 419.291686 -3.796868 L 417.447936 10.255216 C 417.234394 11.911466 416.515644 13.005216 414.302102 13.005216 C 412.08856 13.005216 411.90106 11.911466 412.114602 10.255216 L 413.958352 -3.796868 L 408.890644 -3.796868 L 407.02606 10.385424 C 406.468768 14.760425 407.984393 17.3698 414.010435 17.3698 Z M 444.614604 -3.796868 L 439.81252 -3.796868 L 438.828145 3.671882 L 438.453145 7.666674 L 434.213562 -3.796868 L 428.885436 -3.796868 L 426.166686 17.000008 L 430.963561 17.000008 L 431.927103 9.536466 L 432.322937 5.536466 L 436.567728 17.000008 L 441.895854 17.000008 Z M 454.479188 -3.796868 L 449.406271 -3.796868 L 446.692729 17.000008 L 451.755229 17.000008 Z M 467.515647 0.578132 L 472.177106 0.578132 L 472.734397 -3.796868 L 458.343771 -3.796868 L 457.78648 0.578132 L 462.44273 0.578132 L 460.291688 17.000008 L 465.354188 17.000008 Z M 484.307315 10.604175 L 492.088565 -3.796868 L 486.54169 -3.796868 L 482.598981 4.359382 L 480.786481 -3.796868 L 475.239606 -3.796868 L 479.239606 10.604175 L 478.416689 17.000008 L 483.47919 17.000008 Z M 484.307315 10.604175 " stroke="#ffffff" stroke-width="1.366668" stroke-opacity="1" stroke-miterlimit="4"/></svg>