<?xml version="1.0" encoding="utf-8"?>
<!-- Generator: Adobe Illustrator 27.1.1, SVG Export Plug-In . SVG Version: 6.00 Build 0)  -->
<svg version="1.1" id="Layer_2_00000152949184553246581360000010101106525800669586_"
	 xmlns="http://www.w3.org/2000/svg" xmlns:xlink="http://www.w3.org/1999/xlink" x="0px" y="0px" viewBox="0 0 312.5 311.7"
	 style="enable-background:new 0 0 312.5 311.7;" xml:space="preserve">
<style type="text/css">
	.st0{enable-background:new    ;}
	.st1{fill:#FFFFFF;}
	.st2{fill:none;stroke:#FFFFFF;stroke-width:4.15;stroke-miterlimit:10;}
	.st3{fill:none;}
</style>
<g>
	<g>
		<g>
			<g class="st0">
				<path class="st1" d="M119.9,55.3l-5.4-20.6l-12.8,3.4l5.4,20.6l-6.4,1.7l-5.4-20.6l-3.5,0.9l-1.4-5.3l3.5-0.9l-0.1-0.2
					c-1.8-6.8,0.6-9.9,5.7-11.2c1.8-0.5,3.8-0.7,6.1-0.9L107,27c-1.7,0.2-3.1,0.5-4.2,0.8c-2.6,0.7-3.4,1.9-2.6,4.7l0.1,0.2
					l12.8-3.4l6.3-2l6.9,26.2L119.9,55.3z M112.3,26.3l-1.6-5.9l6.4-1.7l1.6,5.9L112.3,26.3z"/>
			</g>
			<g class="st0">
				<path class="st1" d="M139.4,26.2l8-0.3l0.2,5.5l-8,0.3l0.5,12.6c0.1,3,1.2,3.9,3.9,3.8c1.1,0,2.5-0.3,4.3-0.5l0.2,5
					c-2.3,0.6-4.3,0.9-6.1,1c-5.4,0.2-8.5-2.1-8.8-9.1l-0.5-12.6l-3.6,0.1l-0.2-5.5l3.6-0.1l-0.3-6.7l6.5-0.9L139.4,26.2z"/>
			</g>
			<g class="st0">
				<path class="st1" d="M179.3,52.7l-1.5,4.2l-3.3,8.9l-6.2-2.3l12.7-33.9l6.2,1.6l-0.6,2.2l0,0.1c4.2-0.2,8.9,0.4,13.6,2.2
					c11.1,4.2,14.1,11.7,11.3,19.2c-2.9,7.8-10.6,11.3-20.3,7.7C184.1,59.9,180.6,55.3,179.3,52.7L179.3,52.7z M184.7,38.5l-3.2,8.5
					c0.1,2.4,4.9,7.2,11,9.5c6.7,2.5,10.9,0.5,12.6-4c1.6-4.2,0-8.4-7.7-11.3C193.4,39.7,188.6,38.9,184.7,38.5z"/>
			</g>
			<g class="st0">
				<path class="st1" d="M224.7,47.6l5.2,4.1l-8.4,10.6c-2.9,3.7-3.1,7.6,3.3,12.7c5,4,10.4,4.7,12.7,3.7l10.2-12.9l5.2,4.1
					l-16.6,21l-4.6-3.6l2.3-3.6l0-0.1c-3.3,0.2-8.7-0.4-14.2-4.9c-8.8-7-8.4-14.3-3.4-20.5L224.7,47.6z"/>
			</g>
			<g class="st0">
				<path class="st1" d="M258.7,77.8l4.3,4.7l-3.4,2.8l0,0.1c5.5,1.2,9.4,4.3,12.6,8.8l-5.3,3.7c-2.5-4.2-6.8-8.6-11.5-9.3L241.4,99
					l-4-5.3L258.7,77.8z"/>
			</g>
			<g class="st0">
				<path class="st1" d="M258.8,109.3c1.4,7.2,2.5,11.3,4.6,16.2c1.2,2.9,4.8,10.9,7.4,9.8c2.1-0.9-0.1-5.8-2.4-11.4
					c-3.1-7.5-6.2-16.6,0.5-19.5c7.6-3.3,12.4,6.8,14.8,12.3c1.9,4.5,3.6,9.8,5,15.6l-6,1.5c-1.5-6.3-2.8-10.3-5.1-15.7
					c-2-4.6-4-8.4-6.1-7.5c-2.2,0.9-0.2,5.6,2,10.9c3.2,7.6,6.8,17-0.1,19.9c-8,3.4-13.9-9.2-16-14.2c-2.4-5.5-3.6-9.9-4.7-16.7
					L258.8,109.3z"/>
			</g>
			<g class="st0">
				<path class="st1" d="M292.8,143.8l0.6,6.5l-13.4,1.3c-4.7,0.5-7.6,3.1-6.8,11.2c0.6,6.4,3.8,10.7,6.1,11.7l16.4-1.6l0.6,6.5
					l-26.6,2.6l-0.6-5.8l4.2-0.8l0-0.1c-2.5-2.2-5.7-6.5-6.4-13.6c-1.1-11.2,4.4-15.9,12.4-16.7L292.8,143.8z"/>
			</g>
			<g class="st0">
				<path class="st1" d="M268.1,186.4l26.3,3l-0.1,6.6l-27-3.1L268.1,186.4z M297.9,189.9l6.1,0.7l-0.8,6.5l-6.1-0.7L297.9,189.9z"
					/>
			</g>
			<g class="st0">
				<path class="st1" d="M290.5,213.4l-2,7.8l-5.3-1.3l2-7.8l-12.3-3.1c-2.9-0.7-4.1,0.1-4.7,2.6c-0.3,1.1-0.5,2.5-0.8,4.2l-4.9-1.2
					c0.1-2.3,0.3-4.4,0.8-6.2c1.3-5.2,4.4-7.6,11.2-5.8l12.3,3.1l0.9-3.5l5.3,1.3l-0.9,3.5l6.5,1.7l-1,6.5L290.5,213.4z"/>
			</g>
		</g>
		<path class="st2" d="M32.1,128.5c9.6-28.3,29.3-52.7,55.7-67.9"/>
		<path class="st2" d="M260.7,225.1c-16.1,31.5-45.5,56-82.8,64.6C111,305.2,44.1,263.5,28.7,196.5c-1.4-6.2-2.4-12.4-2.9-18.5"/>
	</g>
	<g>
		<g>
			<path class="st1" d="M73.6,219.4V216h21.3c-0.8-10.2-9.4-18.3-19.9-18.3c-11,0-20,8.9-20,20s8.9,20,20,20s19-8.1,19.9-18.3H73.6
				L73.6,219.4z"/>
			<path class="st1" d="M144.2,216c-0.9-10.2-9.4-18.3-19.9-18.3s-19,8.1-19.9,18.3H144.2L144.2,216z"/>
			<path class="st1" d="M193.5,216c-0.9-10.2-9.4-18.3-19.9-18.3s-19,8.1-19.9,18.3H193.5L193.5,216z"/>
			<path class="st1" d="M222.8,197.7c-10.5,0-19,8.1-19.9,18.3h22.5v3.4h-22.5c0.9,10.2,9.4,18.3,19.9,18.3c11,0,20-8.9,20-20
				S233.9,197.7,222.8,197.7L222.8,197.7z"/>
			<path class="st1" d="M153.7,219.4c0.9,10.2,9.4,18.3,19.9,18.3s19-8.1,19.9-18.3H153.7L153.7,219.4z"/>
			<path class="st1" d="M104.4,219.4c0.8,10.2,9.4,18.3,19.9,18.3s19-8.1,19.9-18.3H104.4L104.4,219.4z"/>
		</g>
		<rect x="20.2" y="151.4" class="st1" width="40.1" height="3.4"/>
		<g>
			<polygon class="st1" points="8.5,135.7 8.5,139 69.9,139 69.6,135.7 			"/>
			<polygon class="st1" points="33.7,167 33.7,170.4 72.1,170.4 71.9,167 			"/>
			<path class="st1" d="M186.3,168.7c4.8,0.2,9.4-0.8,13.2-2.9c5-2.8,8-7,8.9-12.4l0.1-0.7c-2.2-1.2-4.6-2.4-7.3-3.3
				c-2.2-0.8-4.6-1.2-6.9-1.6l-9.4-1.6l-14.7,21.7L186.3,168.7L186.3,168.7z"/>
			<path class="st1" d="M127.7,165.7l19.6-28.1l0,0c-2.4-0.8-4.4-2.4-5.7-4.4l-22.3,32.1L127.7,165.7L127.7,165.7z"/>
			<polygon class="st1" points="166.2,167.7 181.3,145.5 174.5,144.2 159.2,167.3 			"/>
			<path class="st1" d="M116.5,113.2l23.2-5.7l-0.1-9.6l-26.1,6.2C114.8,107,115.9,110,116.5,113.2L116.5,113.2z"/>
			<polygon class="st1" points="155.3,167.1 171,143.5 150.6,138.6 131.6,165.9 			"/>
			<path class="st1" d="M108.5,102c-3.8-6.6-8.9-11.7-9-11.8l-32.5,8l1,13.5L108.5,102L108.5,102z"/>
			<path class="st1" d="M139.6,94.5l-0.1-14.2l-36.3,9c1.6,1.7,5.5,6,8.8,11.9L139.6,94.5L139.6,94.5z"/>
			<path class="st1" d="M211.5,154.7c-1.2,6-4.8,10.8-10.4,14c-3.9,2.2-8.5,3.4-13.4,3.4c-0.5,0-1.1,0-1.6,0l-91.2-4.6v-21.9
				l1.4-0.2c7.9-1.2,17.2-8.6,17.5-25.1c0-0.9,0-1.9-0.1-2.8L69,128.3l0.5,7.5H80v3.4H69.9l2,28h8.2v3.4h-8l1.7,24.1h152.6
				C226.3,194.5,230.2,168.3,211.5,154.7L211.5,154.7z"/>
			<path class="st1" d="M117.2,120.2c-0.3,17.7-10.1,26-18.9,28.1v15.9l17,0.9l24.8-35.6l-0.2-1.9l-0.1-16.5l-22.7,5.5
				C117.2,117.8,117.2,119,117.2,120.2L117.2,120.2z"/>
			<path class="st1" d="M68.2,115.1l0.7,9.7l44.4-10.8c-0.7-3.2-1.8-6.3-3.1-9L68.2,115.1L68.2,115.1z"/>
		</g>
		<line class="st3" x1="208.3" y1="153.4" x2="208.4" y2="152.7"/>
	</g>
</g>
</svg>
