<?xml version="1.0" encoding="utf-8"?>
<!-- Generator: Adobe Illustrator 27.1.1, SVG Export Plug-In . SVG Version: 6.00 Build 0)  -->
<svg version="1.1" id="Layer_2_00000152949184553246581360000010101106525800669586_"
	 xmlns="http://www.w3.org/2000/svg" xmlns:xlink="http://www.w3.org/1999/xlink" x="0px" y="0px" viewBox="0 0 312.5 311.7"
	 style="enable-background:new 0 0 312.5 311.7;" xml:space="preserve">
<style type="text/css">
	.st0{fill:#FFFFFF;}
	.st1{font-family:'Halogen-Bold';}
	.st2{font-size:51px;}
	.st3{fill:none;stroke:#FFFFFF;stroke-width:4.15;stroke-miterlimit:10;}
	.st4{fill:none;}
</style>
<g>
	<g>
		<g>
			<text transform="matrix(0.967 -0.2549 0.2549 0.967 95.1601 62.85)" class="st0 st1 st2">fi</text>
			<text transform="matrix(0.9992 -4.048057e-02 4.048057e-02 0.9992 128.2 54.77)" class="st0 st1 st2">t</text>
			<text transform="matrix(0.9364 0.351 -0.351 0.9364 167.6299 54.8399)" class="st0 st1 st2">p</text>
			<text transform="matrix(0.7834 0.6216 -0.6216 0.7834 204.42 68.2701)" class="st0 st1 st2">u</text>
			<text transform="matrix(0.6008 0.7994 -0.7994 0.6008 234.3898 92.9299)" class="st0 st1 st2">r</text>
			<text transform="matrix(0.3938 0.9192 -0.9192 0.3938 249.26 110.8001)" class="st0 st1 st2">s</text>
			<text transform="matrix(9.775661e-02 0.9952 -0.9952 9.775661e-02 264.4396 145.05)" class="st0 st1 st2">u</text>
			<text transform="matrix(-0.1139 0.9935 -0.9935 -0.1139 267.0698 184.0699)" class="st0 st1 st2">i</text>
			<text transform="matrix(-0.2472 0.969 -0.969 -0.2472 265.7903 197.68)" class="st0 st1 st2">t</text>
		</g>
		<path class="st3" d="M30.7,129.9c9.6-28.3,29.3-52.7,55.7-67.9"/>
		<path class="st3" d="M259.3,226.5c-16.1,31.5-45.5,56-82.8,64.6c-66.9,15.5-133.8-26.2-149.2-93.2c-1.4-6.2-2.4-12.4-2.9-18.5"/>
	</g>
	<g>
		<g>
			<path class="st0" d="M72.2,220.8v-3.4h21.3c-0.8-10.2-9.4-18.3-19.9-18.3c-11,0-20,8.9-20,20s8.9,20,20,20s19-8.1,19.9-18.3
				L72.2,220.8L72.2,220.8z"/>
			<path class="st0" d="M142.8,217.4c-0.9-10.2-9.4-18.3-19.9-18.3s-19,8.1-19.9,18.3H142.8L142.8,217.4z"/>
			<path class="st0" d="M192.1,217.4c-0.9-10.2-9.4-18.3-19.9-18.3s-19,8.1-19.9,18.3H192.1L192.1,217.4z"/>
			<path class="st0" d="M221.4,199.1c-10.5,0-19,8.1-19.9,18.3h22.5v3.4h-22.5c0.9,10.2,9.4,18.3,19.9,18.3c11,0,20-8.9,20-20
				S232.5,199.1,221.4,199.1L221.4,199.1z"/>
			<path class="st0" d="M152.3,220.8c0.9,10.2,9.4,18.3,19.9,18.3s19-8.1,19.9-18.3H152.3L152.3,220.8z"/>
			<path class="st0" d="M103,220.8c0.8,10.2,9.4,18.3,19.9,18.3s19-8.1,19.9-18.3H103L103,220.8z"/>
		</g>
		<rect x="18.8" y="152.8" class="st0" width="40.1" height="3.4"/>
		<g>
			<polygon class="st0" points="7.1,137.1 7.1,140.4 68.5,140.4 68.2,137.1 			"/>
			<polygon class="st0" points="32.3,168.4 32.3,171.8 70.7,171.8 70.5,168.4 			"/>
			<path class="st0" d="M184.9,170.1c4.8,0.2,9.4-0.8,13.2-2.9c5-2.8,8-7,8.9-12.4l0.1-0.7c-2.2-1.2-4.6-2.4-7.3-3.3
				c-2.2-0.8-4.6-1.2-6.9-1.6l-9.4-1.6l-14.7,21.7L184.9,170.1L184.9,170.1z"/>
			<path class="st0" d="M126.3,167.1l19.6-28.1c0,0,0,0,0,0c-2.4-0.8-4.4-2.4-5.7-4.4l-22.3,32.1L126.3,167.1L126.3,167.1z"/>
			<polygon class="st0" points="164.8,169.1 179.9,146.9 173.1,145.6 157.8,168.7 			"/>
			<path class="st0" d="M115.1,114.6l23.2-5.7l-0.1-9.6l-26.1,6.2C113.4,108.4,114.5,111.4,115.1,114.6L115.1,114.6z"/>
			<polygon class="st0" points="153.9,168.5 169.6,144.9 149.2,140 130.2,167.3 			"/>
			<path class="st0" d="M107.1,103.4c-3.8-6.6-8.9-11.7-9-11.8l-32.5,8l1,13.5L107.1,103.4L107.1,103.4z"/>
			<path class="st0" d="M138.2,95.9l-0.1-14.2l-36.3,9c1.6,1.7,5.5,6,8.8,11.9L138.2,95.9L138.2,95.9z"/>
			<path class="st0" d="M210.1,156.1c-1.2,6-4.8,10.8-10.4,14c-3.9,2.2-8.5,3.4-13.4,3.4c-0.5,0-1.1,0-1.6,0l-91.2-4.6v-21.9
				l1.4-0.2c7.9-1.2,17.2-8.6,17.5-25.1c0-0.9,0-1.9-0.1-2.8l-44.7,10.8l0.5,7.5h10.5v3.4H68.5l2,28h8.2v3.4h-8l1.7,24.1h152.6
				C224.9,195.9,228.8,169.7,210.1,156.1L210.1,156.1z"/>
			<path class="st0" d="M115.8,121.6c-0.3,17.7-10.1,26-18.9,28.1v15.9l17,0.9l24.8-35.6l-0.2-1.9l-0.1-16.5l-22.7,5.5
				C115.8,119.2,115.8,120.4,115.8,121.6L115.8,121.6z"/>
			<path class="st0" d="M66.8,116.5l0.7,9.7l44.4-10.8c-0.7-3.2-1.8-6.3-3.1-9L66.8,116.5L66.8,116.5z"/>
		</g>
		<line class="st4" x1="206.9" y1="154.8" x2="207" y2="154.1"/>
	</g>
</g>
</svg>
