<?xml version="1.0" encoding="UTF-8"?><svg id="Layer_2" xmlns="http://www.w3.org/2000/svg" viewBox="0 0 312.52 311.72"><defs><style>.cls-1{font-family:Halogen-Black, Halogen;font-size:51px;font-weight:800;}.cls-2{fill:none;stroke:#000;stroke-miterlimit:10;stroke-width:4.15px;}</style></defs><g><g><text class="cls-1" transform="translate(97.22 62.85) rotate(-14.77)"><tspan x="0" y="0">fi</tspan></text><text class="cls-1" transform="translate(130.27 54.77) rotate(-2.32)"><tspan x="0" y="0">t</tspan></text><text class="cls-1" transform="translate(149.97 53.85) rotate(6.93)"><tspan x="0" y="0"> </tspan></text><text class="cls-1" transform="translate(169.7 54.84) rotate(20.55)"><tspan x="0" y="0">p</tspan></text><text class="cls-1" transform="translate(206.49 68.27) rotate(38.43)"><tspan x="0" y="0">u</tspan></text><text class="cls-1" transform="translate(236.46 92.93) rotate(53.07)"><tspan x="0" y="0">r</tspan></text><text class="cls-1" transform="translate(251.33 110.8) rotate(66.81)"><tspan x="0" y="0">s</tspan></text><text class="cls-1" transform="translate(266.51 145.05) rotate(84.39)"><tspan x="0" y="0">u</tspan></text><text class="cls-1" transform="translate(269.13 184.07) rotate(96.54)"><tspan x="0" y="0">i</tspan></text><text class="cls-1" transform="translate(267.86 197.68) rotate(104.31)"><tspan x="0" y="0">t</tspan></text></g><path class="cls-2" d="m32.73,129.95c9.62-28.29,29.27-52.65,55.7-67.86"/><path class="cls-2" d="m261.36,226.49c-16.13,31.53-45.54,56-82.75,64.61-66.94,15.49-133.76-26.22-149.25-93.16-1.43-6.17-2.37-12.35-2.85-18.48"/></g><g><g><path d="m74.3,220.75v-3.35h21.31c-.85-10.24-9.43-18.29-19.88-18.29-11.02,0-19.96,8.94-19.96,19.96s8.94,19.96,19.96,19.96,19.03-8.05,19.88-18.28h-21.31Z"/><path d="m144.87,217.4c-.85-10.24-9.43-18.29-19.88-18.29s-19.03,8.05-19.88,18.29h39.77Z"/><path d="m194.13,217.4c-.85-10.24-9.43-18.29-19.88-18.29s-19.03,8.05-19.88,18.29h39.77Z"/><path d="m223.51,199.11c-10.46,0-19.03,8.05-19.88,18.29h22.52v3.35h-22.52c.85,10.24,9.43,18.28,19.88,18.28,11.02,0,19.96-8.94,19.96-19.96s-8.94-19.96-19.96-19.96Z"/><path d="m154.36,220.75c.85,10.24,9.43,18.28,19.88,18.28s19.03-8.05,19.88-18.28h-39.77Z"/><path d="m105.1,220.75c.85,10.24,9.43,18.28,19.88,18.28s19.03-8.05,19.88-18.28h-39.77Z"/></g><rect x="20.9" y="152.75" width="40.08" height="3.35"/><g><polygon points="9.17 137.11 9.17 140.45 70.54 140.45 70.3 137.11 9.17 137.11"/><polygon points="34.34 168.45 34.34 171.8 72.77 171.8 72.53 168.45 34.34 168.45"/><path d="m186.98,170.07c4.82.24,9.38-.77,13.18-2.91,5.01-2.83,7.99-7,8.86-12.41l.08-.69c-2.16-1.25-4.57-2.35-7.27-3.26-2.24-.75-4.56-1.24-6.9-1.63l-9.38-1.63-14.73,21.71,16.16.82Z"/><path d="m128.38,167.11l19.56-28.1s-.03,0-.04-.01c-2.41-.78-4.38-2.37-5.67-4.4l-22.3,32.08,8.44.43Z"/><polygon points="166.91 169.05 181.95 146.88 175.18 145.58 159.82 168.7 166.91 169.05"/><path d="m117.2,114.64l23.2-5.68-.11-9.6-26.13,6.25c1.3,2.77,2.38,5.81,3.03,9.04Z"/><polygon points="155.93 168.5 171.64 144.87 151.31 140.04 132.32 167.31 155.93 168.5"/><path d="m109.17,103.36c-3.84-6.6-8.95-11.73-9.03-11.8l-32.51,8.04.96,13.48,40.58-9.71Z"/><path d="m140.27,95.9l-.13-14.23-36.35,8.98c1.62,1.67,5.52,5.97,8.81,11.88l27.67-6.64Z"/><path d="m212.17,156.06c-1.19,6.01-4.75,10.84-10.37,14.01-3.93,2.22-8.54,3.38-13.42,3.38-.52,0-1.05-.01-1.57-.04l-91.2-4.61v-21.92l1.41-.22c7.86-1.24,17.16-8.56,17.49-25.1.02-.94-.02-1.87-.1-2.79l-44.65,10.84.53,7.5h10.47v3.35h-10.23l1.99,28h8.24v3.35h-8.01l1.71,24.09h152.55s3.9-26.19-14.86-39.82Z"/><path d="m117.87,121.62c-.35,17.66-10.09,26.02-18.9,28.07v15.93l17.03.86,24.76-35.62-.18-1.87-.15-16.52-22.71,5.5c.12,1.2.18,2.42.16,3.66Z"/><path d="m68.84,116.52l.69,9.68,44.41-10.76c-.65-3.22-1.79-6.26-3.13-9.02l-41.96,10.11Z"/></g><line x1="209.02" y1="154.75" x2="209.09" y2="154.06"/></g></svg>