<?xml version="1.0" encoding="UTF-8"?><svg id="Layer_2" xmlns="http://www.w3.org/2000/svg" viewBox="0 0 557.51 345.32"><g><path d="m391.85,202.65v-94.83h-59.83v94.83h-35.47v-94.83h-16.56v-29.33h16.56v-1.18c0-32.4,14.9-43.51,41.39-43.51,8.75,0,18.92,1.18,30.27,3.31v27.2c-8.28-.71-14.9-1.18-20.1-1.18-11.35,0-16.08,2.84-16.08,14.19v1.18h59.83l35.47-1.89v126.05h-35.47Zm0-139.06v-28.38h35.47v28.38h-35.47Z"/><path d="m498.27,78.49h36.18v29.33h-36.18v54.63c0,11.35,4.73,14.19,16.08,14.19,5.2,0,11.83-.71,20.1-1.18v27.2c-11.35,2.13-21.52,3.55-30.27,3.55-26.49,0-41.39-11.35-41.39-43.75v-54.63h-16.55v-29.33h16.55v-30.74l35.47-3.55v34.29Z"/></g><g><path d="m62.29,295.75l.11,8.55v21.38h-16.88v-79.67l16.32-1.69.45,4.61.11.11c7.99-3.38,16.99-5.51,27.57-5.51,26.22,0,38.04,13.17,38.04,30.83s-12.94,31.62-35.67,31.62c-16.2,0-26.33-6.75-29.93-10.35l-.11.11Zm.11-33.08v17.44c.68,4.05,13.84,10.24,27.8,10.24s20.59-6.64,20.59-15.87-5.4-15.3-22.51-15.3c-8.55,0-17.56,1.69-25.88,3.49Z"/><path d="m137,245.22h16.88v29.82c0,9.12,4.05,15.3,21.16,15.3,13.95,0,23.52-6.19,24.19-10.24v-34.89h16.88v59.08h-14.85l-1.13-8.55-.11-.11c-4.5,4.39-13.73,10.35-29.15,10.35-24.98,0-33.87-13.17-33.87-30.83v-29.93Z"/><path d="m227.36,246.01l16.32-1.69.45,8.67.11.11c9.34-7.88,19.81-9.57,30.38-9.57l-.68,16.54c-9.68-1.01-23.29.34-29.71,6.64v37.59h-16.88v-58.29Z"/><path d="m283.63,285.62c15.98,3.49,25.21,4.73,36.8,4.73,6.08,0,23.52-.23,23.52-4.73,0-3.49-10.47-3.15-22.73-3.38-17.67-.45-39.16-2.14-39.16-18.68,0-18.91,24.53-20.03,37.92-20.03,10.92,0,22.96,1.13,36.01,3.38l-2.7,15.53c-14.4-2.48-23.07-3.15-36.35-3.15-10.92,0-17.67.9-17.67,4.39,0,3.94,9.79,3.94,21.49,4.05,17.89.22,40.4,1.01,40.4,17.78,0,19.58-30.95,20.48-42.65,20.48-13.39,0-23.52-1.24-38.26-4.95l3.38-15.42Z"/><path d="m370.16,245.22h16.88v29.82c0,9.12,4.05,15.3,21.16,15.3,13.95,0,23.52-6.19,24.19-10.24v-34.89h16.88v59.08h-14.85l-1.13-8.55-.11-.11c-4.5,4.39-13.73,10.35-29.15,10.35-24.98,0-33.87-13.17-33.87-30.83v-29.93Z"/><path d="m462.77,238.13v-13.5h16.88v13.5h-16.88Zm0,66.17v-58.29l16.88-1.69v59.98h-16.88Z"/><path d="m513.41,245.22h17.22v13.95h-17.22v26c0,5.4,2.25,6.75,7.65,6.75,2.48,0,5.63-.34,9.57-.56v12.94c-5.4,1.01-10.24,1.69-14.4,1.69-12.6,0-19.69-5.4-19.69-20.82v-26h-7.88v-13.95h7.88v-14.63l16.88-1.69v16.32Z"/></g><g><g><path d="m84.22,180.97v-3.51h22.33c-.89-10.73-9.88-19.16-20.84-19.16-11.55,0-20.91,9.36-20.91,20.91s9.36,20.91,20.91,20.91,19.94-8.43,20.84-19.16h-22.33Z"/><path d="m158.17,177.46c-.89-10.73-9.88-19.16-20.84-19.16s-19.94,8.43-20.84,19.16h41.67Z"/><path d="m209.79,177.46c-.89-10.73-9.88-19.16-20.84-19.16s-19.94,8.43-20.84,19.16h41.67Z"/><path d="m240.57,158.3c-10.96,0-19.94,8.43-20.84,19.16h23.6v3.51h-23.6c.89,10.73,9.88,19.16,20.84,19.16,11.55,0,20.91-9.36,20.91-20.91s-9.36-20.91-20.91-20.91Z"/><path d="m168.12,180.97c.89,10.73,9.88,19.16,20.84,19.16s19.94-8.43,20.84-19.16h-41.67Z"/><path d="m116.5,180.97c.89,10.73,9.88,19.16,20.84,19.16s19.94-8.43,20.84-19.16h-41.67Z"/></g><rect x="28.26" y="109.72" width="42" height="3.51"/><g><polygon points="15.97 93.33 15.97 96.83 80.28 96.83 80.03 93.33 15.97 93.33"/><polygon points="42.35 126.17 42.35 129.68 82.62 129.68 82.37 126.17 42.35 126.17"/><path d="m202.3,127.87c5.05.25,9.82-.81,13.81-3.05,5.25-2.96,8.37-7.33,9.28-13l.08-.73c-2.26-1.31-4.79-2.46-7.61-3.41-2.35-.79-4.78-1.3-7.23-1.71l-9.82-1.71-15.44,22.75,16.94.86Z"/><path d="m140.89,124.76l20.5-29.44s-.03,0-.04-.01c-2.52-.82-4.59-2.48-5.94-4.61l-23.37,33.62,8.85.45Z"/><polygon points="181.26 126.8 197.02 103.57 189.93 102.21 173.83 126.43 181.26 126.8"/><path d="m129.18,69.79l24.31-5.96-.11-10.06-27.38,6.55c1.36,2.9,2.49,6.09,3.18,9.47Z"/><polygon points="169.76 126.22 186.22 101.46 164.91 96.4 145.02 124.97 169.76 126.22"/><path d="m120.76,57.97c-4.02-6.92-9.38-12.29-9.46-12.37l-34.06,8.42,1,14.12,42.52-10.17Z"/><path d="m153.35,50.15l-.13-14.91-38.09,9.41c1.7,1.74,5.78,6.25,9.23,12.45l29-6.96Z"/><path d="m228.69,113.19c-1.24,6.29-4.98,11.36-10.86,14.68-4.12,2.33-8.95,3.54-14.06,3.54-.55,0-1.1-.01-1.65-.04l-95.56-4.83v-22.97l1.48-.23c8.24-1.3,17.98-8.97,18.32-26.3.02-.99-.02-1.96-.1-2.93l-46.79,11.36.56,7.86h10.97v3.51h-10.72l2.08,29.34h8.64v3.51h-8.39l1.79,25.24h159.85s4.08-27.44-15.57-41.73Z"/><path d="m129.87,77.1c-.36,18.5-10.58,27.27-19.8,29.41v16.69l17.84.9,25.94-37.33-.19-1.96-.16-17.31-23.8,5.77c.13,1.26.19,2.53.16,3.83Z"/><path d="m78.5,71.76l.72,10.14,46.54-11.28c-.68-3.37-1.87-6.56-3.28-9.45l-43.97,10.59Z"/></g><line x1="225.38" y1="111.82" x2="225.46" y2="111.09"/></g><rect x="44.05" y="198.36" width="383.28" height="5.97"/></svg>