<?xml version="1.0" encoding="utf-8"?>
<!-- Generator: Adobe Illustrator 27.1.1, SVG Export Plug-In . SVG Version: 6.00 Build 0)  -->
<svg version="1.1" id="Layer_2_00000176725107228660574340000017506950025611079306_"
	 xmlns="http://www.w3.org/2000/svg" xmlns:xlink="http://www.w3.org/1999/xlink" x="0px" y="0px" viewBox="0 0 793.2 272.4"
	 style="enable-background:new 0 0 793.2 272.4;" xml:space="preserve">
<style type="text/css">
	.st0{fill:#FFFFFF;}
	.st1{fill:none;}
</style>
<g>
	<g>
		<path class="st0" d="M188.4,164.7v-45.1H160v45.1h-16.9v-45.1h-7.9v-13.9h7.9v-0.6c0-15.4,7.1-20.7,19.7-20.7
			c4.2,0,9,0.6,14.4,1.6v12.9c-3.9-0.3-7.1-0.6-9.6-0.6c-5.4,0-7.6,1.3-7.6,6.8v0.6h28.5l16.9-0.9v60L188.4,164.7L188.4,164.7z
			 M188.4,98.5V85h16.9v13.5H188.4z"/>
		<path class="st0" d="M239.1,105.6h17.2v13.9h-17.2v26c0,5.4,2.3,6.8,7.6,6.8c2.5,0,5.6-0.3,9.6-0.6v12.9c-5.4,1-10.2,1.7-14.4,1.7
			c-12.6,0-19.7-5.4-19.7-20.8v-26h-7.9v-13.9h7.9V91l16.9-1.7V105.6z"/>
	</g>
	<g
		<path class="st0" d="M304.6,157.4l0.1,8.7V188h-17.3v-81.5l16.7-1.7l0.5,4.7l0.1,0.1c8.2-3.5,17.4-5.6,28.2-5.6
			c26.8,0,38.9,13.5,38.9,31.5s-13.2,32.3-36.5,32.3c-16.6,0-26.9-6.9-30.6-10.6L304.6,157.4L304.6,157.4z M304.7,123.6v17.8
			c0.7,4.1,14.2,10.5,28.4,10.5c14.3,0,21.1-6.8,21.1-16.2s-5.5-15.6-23-15.6C322.4,120,313.2,121.7,304.7,123.6L304.7,123.6z"/>
		<path class="st0" d="M381,105.7h17.3v30.5c0,9.3,4.1,15.6,21.6,15.6c14.3,0,24.1-6.3,24.7-10.5v-35.7h17.3v60.4h-15.2l-1.2-8.7
			l-0.1-0.1c-4.6,4.5-14,10.6-29.8,10.6c-25.6,0-34.6-13.5-34.6-31.5L381,105.7L381,105.7z"/>
		<path class="st0" d="M473.4,106.5l16.7-1.7l0.5,8.9l0.1,0.1c9.6-8.1,20.3-9.8,31.1-9.8l-0.7,16.9c-9.9-1-23.8,0.4-30.4,6.8v38.4
			h-17.3V106.5z"/>
		<path class="st0" d="M531,147.1c16.4,3.6,25.8,4.8,37.6,4.8c6.2,0,24.1-0.2,24.1-4.8c0-3.6-10.7-3.2-23.3-3.5
			c-18.1-0.5-40.1-2.2-40.1-19.1c0-19.3,25.1-20.5,38.8-20.5c11.2,0,23.5,1.2,36.8,3.5l-2.8,15.9c-14.7-2.5-23.6-3.2-37.2-3.2
			c-11.2,0-18.1,0.9-18.1,4.5c0,4,10,4,22,4.1c18.3,0.2,41.3,1,41.3,18.2c0,20-31.6,21-43.6,21c-13.7,0-24.1-1.3-39.1-5.1L531,147.1
			L531,147.1z"/>
		<path class="st0" d="M619.5,105.7h17.3v30.5c0,9.3,4.1,15.6,21.6,15.6c14.3,0,24.1-6.3,24.7-10.5v-35.7h17.3v60.4h-15.2l-1.2-8.7
			l-0.1-0.1c-4.6,4.5-14,10.6-29.8,10.6c-25.6,0-34.6-13.5-34.6-31.5L619.5,105.7L619.5,105.7z"/>
		<path class="st0" d="M714.2,98.5V84.7h17.3v13.8H714.2z M714.2,166.2v-59.6l17.3-1.7v61.3H714.2z"/>
		<path class="st0" d="M766,105.7h17.6V120H766v26.6c0,5.5,2.3,6.9,7.8,6.9c2.5,0,5.8-0.4,9.8-0.6v13.2c-5.5,1-10.5,1.7-14.7,1.7
			c-12.9,0-20.1-5.5-20.1-21.3V120h-8.1v-14.3h8.1v-15l17.3-1.7L766,105.7L766,105.7z"/>
	</g>
	<g>
		<g>
			<path class="st0" d="M42.1,154.4v-1.7h10.6c-0.4-5.1-4.7-9.1-9.9-9.1c-5.5,0-9.9,4.5-9.9,9.9c0,5.5,4.5,9.9,9.9,9.9
				s9.5-4,9.9-9.1H42.1z"/>
			<path class="st0" d="M77.3,152.7c-0.4-5.1-4.7-9.1-9.9-9.1s-9.5,4-9.9,9.1H77.3L77.3,152.7z"/>
			<path class="st0" d="M101.8,152.7c-0.4-5.1-4.7-9.1-9.9-9.1s-9.5,4-9.9,9.1H101.8L101.8,152.7z"/>
			<path class="st0" d="M116.5,143.6c-5.2,0-9.5,4-9.9,9.1h11.2v1.7h-11.2c0.4,5.1,4.7,9.1,9.9,9.1c5.5,0,9.9-4.5,9.9-9.9
				C126.4,148,122,143.6,116.5,143.6z"/>
			<path class="st0" d="M82,154.4c0.4,5.1,4.7,9.1,9.9,9.1s9.5-4,9.9-9.1H82L82,154.4z"/>
			<path class="st0" d="M57.5,154.4c0.4,5.1,4.7,9.1,9.9,9.1c5.2,0,9.5-4,9.9-9.1H57.5L57.5,154.4z"/>
		</g>
		<rect x="15.5" y="120.5" class="st0" width="20" height="1.7"/>
		<g>
			<polygon class="st0" points="9.6,112.7 9.6,114.3 40.2,114.3 40.1,112.7 			"/>
			<polygon class="st0" points="22.2,128.3 22.2,130 41.3,130 41.2,128.3 			"/>
			<path class="st0" d="M98.3,129.1c2.4,0.1,4.7-0.4,6.6-1.5c2.5-1.4,4-3.5,4.4-6.2l0-0.4c-1.1-0.6-2.3-1.2-3.6-1.6
				c-1.1-0.4-2.3-0.6-3.4-0.8l-4.7-0.8l-7.3,10.8C90.2,128.7,98.3,129.1,98.3,129.1z"/>
			<path class="st0" d="M69.1,127.6l9.8-14c0,0,0,0,0,0c-1.2-0.4-2.2-1.2-2.8-2.2l-11.1,16L69.1,127.6L69.1,127.6z"/>
			<polygon class="st0" points="88.3,128.6 95.8,117.6 92.4,116.9 84.7,128.4 			"/>
			<path class="st0" d="M63.5,101.5l11.6-2.8L75,93.9L62,97C62.6,98.4,63.2,99.9,63.5,101.5L63.5,101.5z"/>
			<polygon class="st0" points="82.8,128.3 90.6,116.5 80.5,114.1 71,127.7 			"/>
			<path class="st0" d="M59.5,95.9C57.6,92.6,55,90,55,90l-16.2,4l0.5,6.7L59.5,95.9L59.5,95.9z"/>
			<path class="st0" d="M75,92.1L74.9,85l-18.1,4.5c0.8,0.8,2.8,3,4.4,5.9C61.2,95.4,75,92.1,75,92.1z"/>
			<path class="st0" d="M110.8,122.1c-0.6,3-2.4,5.4-5.2,7c-2,1.1-4.3,1.7-6.7,1.7c-0.3,0-0.5,0-0.8,0l-45.5-2.3v-10.9l0.7-0.1
				c3.9-0.6,8.6-4.3,8.7-12.5c0-0.5,0-0.9,0-1.4l-22.3,5.4l0.3,3.7h5.2v1.7h-5.1l1,14h4.1v1.7h-4l0.8,12h76
				C118.2,142,120.2,128.9,110.8,122.1z"/>
			<path class="st0" d="M63.8,105c-0.2,8.8-5,13-9.4,14v7.9l8.5,0.4l12.3-17.8l-0.1-0.9l-0.1-8.2l-11.3,2.7
				C63.8,103.7,63.8,104.3,63.8,105L63.8,105z"/>
			<path class="st0" d="M39.4,102.4l0.3,4.8l22.1-5.4c-0.3-1.6-0.9-3.1-1.6-4.5L39.4,102.4L39.4,102.4z"/>
		</g>
		<line class="st1" x1="109.2" y1="121.5" x2="109.3" y2="121.1"/>
	</g>
	<rect x="23" y="162.7" class="st0" width="182.3" height="2.8"/>
</g>
</svg>
