<?xml version="1.0" encoding="utf-8"?>
<!-- Generator: Adobe Illustrator 27.1.1, SVG Export Plug-In . SVG Version: 6.00 Build 0)  -->
<svg version="1.1" id="Layer_2_00000176742827545173133820000014900617977178479263_"
	 xmlns="http://www.w3.org/2000/svg" xmlns:xlink="http://www.w3.org/1999/xlink" x="0px" y="0px" viewBox="0 0 557.5 345.3"
	 style="enable-background:new 0 0 557.5 345.3;" xml:space="preserve">
<style type="text/css">
	.st0{fill:#FFFFFF;}
	.st1{fill:none;}
</style>
<g>
	<path class="st0" d="M391.9,202.6v-94.8H332v94.8h-35.5v-94.8H280V78.5h16.6v-1.2c0-32.4,14.9-43.5,41.4-43.5
		c8.8,0,18.9,1.2,30.3,3.3v27.2c-8.3-0.7-14.9-1.2-20.1-1.2c-11.4,0-16.1,2.8-16.1,14.2v1.2h59.8l35.5-1.9v126.1L391.9,202.6
		L391.9,202.6z M391.9,63.6V35.2h35.5v28.4H391.9z"/>
	<path class="st0" d="M498.3,78.5h36.2v29.3h-36.2v54.6c0,11.4,4.7,14.2,16.1,14.2c5.2,0,11.8-0.7,20.1-1.2v27.2
		c-11.3,2.1-21.5,3.6-30.3,3.6c-26.5,0-41.4-11.4-41.4-43.8v-54.6h-16.5V78.5h16.5V47.8l35.5-3.5L498.3,78.5L498.3,78.5z"/>
</g>
<g>
	<path class="st0" d="M62.3,295.8l0.1,8.5v21.4H45.5V246l16.3-1.7l0.5,4.6l0.1,0.1c8-3.4,17-5.5,27.6-5.5c26.2,0,38,13.2,38,30.8
		S115.1,306,92.3,306c-16.2,0-26.3-6.8-29.9-10.4L62.3,295.8L62.3,295.8z M62.4,262.7v17.4c0.7,4,13.8,10.2,27.8,10.2
		s20.6-6.6,20.6-15.9s-5.4-15.3-22.5-15.3C79.7,259.2,70.7,260.9,62.4,262.7z"/>
	<path class="st0" d="M137,245.2h16.9V275c0,9.1,4.1,15.3,21.2,15.3c13.9,0,23.5-6.2,24.2-10.2v-34.9h16.9v59.1h-14.9l-1.1-8.5
		l-0.1-0.1c-4.5,4.4-13.7,10.4-29.1,10.4c-25,0-33.9-13.2-33.9-30.8L137,245.2L137,245.2z"/>
	<path class="st0" d="M227.4,246l16.3-1.7l0.4,8.7l0.1,0.1c9.3-7.9,19.8-9.6,30.4-9.6l-0.7,16.5c-9.7-1-23.3,0.3-29.7,6.6v37.6
		h-16.9L227.4,246L227.4,246z"/>
	<path class="st0" d="M283.6,285.6c16,3.5,25.2,4.7,36.8,4.7c6.1,0,23.5-0.2,23.5-4.7c0-3.5-10.5-3.1-22.7-3.4
		c-17.7-0.5-39.2-2.1-39.2-18.7c0-18.9,24.5-20,37.9-20c10.9,0,23,1.1,36,3.4l-2.7,15.5c-14.4-2.5-23.1-3.1-36.4-3.1
		c-10.9,0-17.7,0.9-17.7,4.4c0,3.9,9.8,3.9,21.5,4c17.9,0.2,40.4,1,40.4,17.8c0,19.6-31,20.5-42.6,20.5c-13.4,0-23.5-1.2-38.3-5
		L283.6,285.6L283.6,285.6z"/>
	<path class="st0" d="M370.2,245.2H387V275c0,9.1,4,15.3,21.2,15.3c14,0,23.5-6.2,24.2-10.2v-34.9h16.9v59.1h-14.9l-1.1-8.5
		l-0.1-0.1C428.7,300,419.5,306,404,306c-25,0-33.9-13.2-33.9-30.8L370.2,245.2L370.2,245.2z"/>
	<path class="st0" d="M462.8,238.1v-13.5h16.9v13.5H462.8z M462.8,304.3V246l16.9-1.7v60H462.8z"/>
	<path class="st0" d="M513.4,245.2h17.2v14h-17.2v26c0,5.4,2.2,6.8,7.7,6.8c2.5,0,5.6-0.3,9.6-0.6v12.9c-5.4,1-10.2,1.7-14.4,1.7
		c-12.6,0-19.7-5.4-19.7-20.8v-26h-7.9v-13.9h7.9v-14.6l16.9-1.7L513.4,245.2L513.4,245.2z"/>
</g>
<g>
	<g>
		<path class="st0" d="M84.2,181v-3.5h22.3c-0.9-10.7-9.9-19.2-20.8-19.2c-11.6,0-20.9,9.4-20.9,20.9s9.4,20.9,20.9,20.9
			s19.9-8.4,20.8-19.2L84.2,181L84.2,181z"/>
		<path class="st0" d="M158.2,177.5c-0.9-10.7-9.9-19.2-20.8-19.2s-19.9,8.4-20.8,19.2H158.2L158.2,177.5z"/>
		<path class="st0" d="M209.8,177.5c-0.9-10.7-9.9-19.2-20.8-19.2s-19.9,8.4-20.8,19.2H209.8L209.8,177.5z"/>
		<path class="st0" d="M240.6,158.3c-11,0-19.9,8.4-20.8,19.2h23.6v3.5h-23.6c0.9,10.7,9.9,19.2,20.8,19.2
			c11.6,0,20.9-9.4,20.9-20.9S252.1,158.3,240.6,158.3L240.6,158.3z"/>
		<path class="st0" d="M168.1,181c0.9,10.7,9.9,19.2,20.8,19.2s19.9-8.4,20.8-19.2H168.1L168.1,181z"/>
		<path class="st0" d="M116.5,181c0.9,10.7,9.9,19.2,20.8,19.2s19.9-8.4,20.8-19.2H116.5L116.5,181z"/>
	</g>
	<rect x="28.3" y="109.7" class="st0" width="42" height="3.5"/>
	<g>
		<polygon class="st0" points="16,93.3 16,96.8 80.3,96.8 80,93.3 		"/>
		<polygon class="st0" points="42.3,126.2 42.3,129.7 82.6,129.7 82.4,126.2 		"/>
		<path class="st0" d="M202.3,127.9c5.1,0.2,9.8-0.8,13.8-3.1c5.2-3,8.4-7.3,9.3-13l0.1-0.7c-2.3-1.3-4.8-2.5-7.6-3.4
			c-2.4-0.8-4.8-1.3-7.2-1.7l-9.8-1.7L185.4,127L202.3,127.9L202.3,127.9z"/>
		<path class="st0" d="M140.9,124.8l20.5-29.4c0,0,0,0,0,0c-2.5-0.8-4.6-2.5-5.9-4.6L132,124.3L140.9,124.8L140.9,124.8z"/>
		<polygon class="st0" points="181.3,126.8 197,103.6 189.9,102.2 173.8,126.4 		"/>
		<path class="st0" d="M129.2,69.8l24.3-6l-0.1-10.1L126,60.3C127.4,63.2,128.5,66.4,129.2,69.8z"/>
		<polygon class="st0" points="169.8,126.2 186.2,101.5 164.9,96.4 145,125 		"/>
		<path class="st0" d="M120.8,58c-4-6.9-9.4-12.3-9.5-12.4L77.2,54l1,14.1C78.2,68.1,120.8,58,120.8,58z"/>
		<path class="st0" d="M153.4,50.2l-0.1-14.9l-38.1,9.4c1.7,1.7,5.8,6.2,9.2,12.5L153.4,50.2L153.4,50.2z"/>
		<path class="st0" d="M228.7,113.2c-1.2,6.3-5,11.4-10.9,14.7c-4.1,2.3-8.9,3.5-14.1,3.5c-0.6,0-1.1,0-1.6,0l-95.6-4.8v-23l1.5-0.2
			c8.2-1.3,18-9,18.3-26.3c0-1,0-2-0.1-2.9L79.5,85.5l0.6,7.9h11v3.5H80.3l2.1,29.3H91v3.5h-8.4l1.8,25.2h159.9
			C244.3,154.9,248.3,127.5,228.7,113.2L228.7,113.2z"/>
		<path class="st0" d="M129.9,77.1c-0.4,18.5-10.6,27.3-19.8,29.4v16.7l17.8,0.9l25.9-37.3l-0.2-2l-0.2-17.3l-23.8,5.8
			C129.8,74.5,129.9,75.8,129.9,77.1L129.9,77.1z"/>
		<path class="st0" d="M78.5,71.8l0.7,10.1l46.5-11.3c-0.7-3.4-1.9-6.6-3.3-9.5L78.5,71.8L78.5,71.8z"/>
	</g>
	<line class="st1" x1="225.4" y1="111.8" x2="225.5" y2="111.1"/>
</g>
<rect x="44" y="198.4" class="st0" width="383.3" height="6"/>
</svg>
