<?xml version="1.0" encoding="utf-8"?>
<!-- Generator: Adobe Illustrator 27.1.1, SVG Export Plug-In . SVG Version: 6.00 Build 0)  -->
<svg version="1.1" id="Layer_2_00000077314280416570082920000003865737024324816546_"
	 xmlns="http://www.w3.org/2000/svg" xmlns:xlink="http://www.w3.org/1999/xlink" x="0px" y="0px" viewBox="0 0 312.5 311.7"
	 style="enable-background:new 0 0 312.5 311.7;" xml:space="preserve">
<style type="text/css">
	.st0{enable-background:new    ;}
	.st1{fill:#F59E0B;}
</style>
<g>
	<g>
		<g>
			<g class="st0">
				<path class="st1" d="M118.5,56.7L113,36.1l-12.8,3.4l5.4,20.6l-6.4,1.7l-5.4-20.6l-3.5,0.9L89,36.8l3.5-0.9l-0.1-0.2
					c-1.8-6.8,0.6-9.9,5.7-11.2c1.8-0.5,3.8-0.7,6.1-0.9l1.3,4.9c-1.7,0.2-3.1,0.5-4.2,0.8c-2.6,0.7-3.4,1.9-2.6,4.7l0.1,0.2
					l12.8-3.4l6.3-2l6.9,26.2L118.5,56.7z M110.8,27.7l-1.6-5.9l6.4-1.7l1.6,5.9L110.8,27.7z"/>
			</g>
			<g class="st0">
				<path class="st1" d="M138,27.6l8-0.3l0.2,5.5l-8,0.3l0.5,12.6c0.1,3,1.2,3.9,3.9,3.8c1.1,0,2.5-0.3,4.3-0.5l0.2,5
					c-2.3,0.6-4.3,0.9-6.1,1c-5.3,0.2-8.5-2.1-8.8-9.1l-0.5-12.6l-3.6,0.1l-0.2-5.5l3.6-0.1l-0.3-6.7l6.5-0.9L138,27.6z"/>
			</g>
			<g class="st0">
				<path class="st1" d="M177.8,54.1l-1.5,4.2l-3.3,8.9l-6.2-2.3L179.5,31l6.2,1.6l-0.6,2.2v0.1c4.2-0.2,8.9,0.4,13.6,2.2
					c11.1,4.2,14.1,11.7,11.3,19.2c-2.9,7.8-10.6,11.3-20.3,7.7C182.7,61.3,179.2,56.7,177.8,54.1L177.8,54.1z M183.2,39.9l-3.2,8.5
					c0.1,2.4,4.9,7.2,11,9.5c6.7,2.5,10.9,0.5,12.6-4c1.6-4.2,0-8.4-7.7-11.3C192,41.1,187.2,40.3,183.2,39.9z"/>
			</g>
			<g class="st0">
				<path class="st1" d="M223.2,49l5.2,4.1L220,63.7c-2.9,3.7-3.1,7.6,3.3,12.7c5,4,10.4,4.7,12.7,3.7l10.2-12.9l5.2,4.1l-16.6,21
					l-4.6-3.6l2.3-3.6V85c-3.3,0.2-8.7-0.4-14.2-4.9c-8.8-7-8.4-14.2-3.4-20.5L223.2,49z"/>
			</g>
			<g class="st0">
				<path class="st1" d="M257.2,79.2l4.3,4.7l-3.4,2.8v0.1c5.5,1.2,9.4,4.3,12.6,8.8l-5.3,3.7c-2.5-4.2-6.8-8.6-11.5-9.3L240,100.4
					l-4-5.3L257.2,79.2z"/>
			</g>
			<g class="st0">
				<path class="st1" d="M257.4,110.7c1.4,7.2,2.5,11.3,4.6,16.2c1.2,2.9,4.8,10.9,7.4,9.8c2.1-0.9-0.1-5.8-2.4-11.4
					c-3.1-7.5-6.2-16.6,0.5-19.5c7.6-3.3,12.4,6.8,14.8,12.3c1.9,4.5,3.6,9.8,5,15.6l-6,1.5c-1.5-6.3-2.8-10.3-5.1-15.7
					c-2-4.6-4-8.4-6.1-7.5c-2.2,0.9-0.2,5.6,2,10.9c3.2,7.6,6.8,17-0.1,19.9c-8,3.4-13.9-9.2-16-14.2c-2.4-5.5-3.6-9.9-4.7-16.7
					L257.4,110.7z"/>
			</g>
			<g class="st0">
				<path class="st1" d="M291.4,145.2l0.6,6.5l-13.4,1.3c-4.7,0.5-7.6,3.1-6.8,11.2c0.6,6.4,3.8,10.7,6.1,11.7l16.4-1.6l0.6,6.5
					l-26.6,2.6l-0.6-5.8l4.2-0.8v-0.1c-2.5-2.2-5.7-6.5-6.4-13.6c-1.1-11.2,4.4-15.9,12.4-16.7L291.4,145.2z"/>
			</g>
			<g class="st0">
				<path class="st1" d="M266.6,187.8l26.3,3l-0.1,6.6l-27-3.1L266.6,187.8z M296.4,191.2l6.1,0.7l-0.7,6.5l-6.1-0.7L296.4,191.2z"
					/>
			</g>
			<g class="st0">
				<path class="st1" d="M289,214.8l-2,7.8l-5.3-1.3l2-7.8l-12.3-3.1c-2.9-0.7-4.1,0.1-4.7,2.6c-0.3,1.1-0.5,2.5-0.8,4.2L261,216
					c0.1-2.3,0.3-4.4,0.8-6.2c1.3-5.2,4.4-7.6,11.2-5.8l12.3,3.1l0.9-3.5l5.3,1.3l-0.9,3.5l6.5,1.7l-1,6.5L289,214.8z"/>
			</g>
		</g>
		<g>
			<path class="st1" d="M32.7,130.6l-3.9-1.3c9.9-29.2,30-53.7,56.6-69l2.1,3.6C61.7,78.6,42.2,102.3,32.7,130.6z"/>
		</g>
		<g>
			<path class="st1" d="M148.2,296.4c-23.4,0-46.4-6.5-66.8-19.3c-28.6-17.9-48.6-45.9-56.2-78.8c-1.5-6.5-2.5-12.8-2.9-18.8
				l4.1-0.3c0.5,5.8,1.4,11.9,2.9,18.2c7.3,31.8,26.6,58.9,54.3,76.2c27.7,17.3,60.5,22.8,92.4,15.4c35.3-8.1,64.9-31.3,81.4-63.5
				l3.7,1.9c-17,33.3-47.7,57.3-84.2,65.7C167.4,295.3,157.8,296.4,148.2,296.4z"/>
		</g>
	</g>
	<g>
		<g>
			<path class="st1" d="M72.2,220.8v-3.4h21.3c-0.8-10.2-9.4-18.3-19.9-18.3c-11,0-20,8.9-20,20s8.9,20,20,20s19-8.1,19.9-18.3H72.2
				L72.2,220.8z"/>
			<path class="st1" d="M142.8,217.4c-0.9-10.2-9.4-18.3-19.9-18.3s-19,8.1-19.9,18.3H142.8L142.8,217.4z"/>
			<path class="st1" d="M192.1,217.4c-0.9-10.2-9.4-18.3-19.9-18.3s-19,8.1-19.9,18.3H192.1L192.1,217.4z"/>
			<path class="st1" d="M221.4,199.1c-10.5,0-19,8.1-19.9,18.3H224v3.4h-22.5c0.9,10.2,9.4,18.3,19.9,18.3c11,0,20-8.9,20-20
				S232.5,199.1,221.4,199.1L221.4,199.1z"/>
			<path class="st1" d="M152.3,220.8c0.9,10.2,9.4,18.3,19.9,18.3s19-8.1,19.9-18.3H152.3L152.3,220.8z"/>
			<path class="st1" d="M103,220.8c0.8,10.2,9.4,18.3,19.9,18.3s19-8.1,19.9-18.3H103L103,220.8z"/>
		</g>
		<rect x="18.8" y="152.8" class="st1" width="40.1" height="3.4"/>
		<g>
			<polygon class="st1" points="7.1,137.1 7.1,140.4 68.5,140.4 68.2,137.1 			"/>
			<polygon class="st1" points="32.3,168.4 32.3,171.8 70.7,171.8 70.5,168.4 			"/>
			<path class="st1" d="M184.9,170.1c4.8,0.2,9.4-0.8,13.2-2.9c5-2.8,8-7,8.9-12.4l0.1-0.7c-2.2-1.2-4.6-2.4-7.3-3.3
				c-2.2-0.8-4.6-1.2-6.9-1.6l-9.4-1.6l-14.7,21.7L184.9,170.1L184.9,170.1z"/>
			<path class="st1" d="M126.3,167.1l19.6-28.1l0,0c-2.4-0.8-4.4-2.4-5.7-4.4l-22.3,32.1L126.3,167.1L126.3,167.1z"/>
			<polygon class="st1" points="164.8,169.1 179.9,146.9 173.1,145.6 157.8,168.7 			"/>
			<path class="st1" d="M115.1,114.6l23.2-5.7l-0.1-9.6l-26.1,6.2C113.4,108.4,114.5,111.4,115.1,114.6L115.1,114.6z"/>
			<polygon class="st1" points="153.9,168.5 169.6,144.9 149.2,140 130.2,167.3 			"/>
			<path class="st1" d="M107.1,103.4c-3.8-6.6-8.9-11.7-9-11.8l-32.5,8l1,13.5L107.1,103.4L107.1,103.4z"/>
			<path class="st1" d="M138.2,95.9l-0.1-14.2l-36.3,9c1.6,1.7,5.5,6,8.8,11.9L138.2,95.9L138.2,95.9z"/>
			<path class="st1" d="M210.1,156.1c-1.2,6-4.8,10.8-10.4,14c-3.9,2.2-8.5,3.4-13.4,3.4c-0.5,0-1.1,0-1.6,0l-91.2-4.6V147l1.4-0.2
				c7.9-1.2,17.2-8.6,17.5-25.1c0-0.9,0-1.9-0.1-2.8l-44.7,10.8l0.5,7.5h10.5v3.4H68.5l2,28h8.2v3.4h-8l1.7,24.1H225
				C224.9,195.9,228.8,169.7,210.1,156.1L210.1,156.1z"/>
			<path class="st1" d="M115.8,121.6c-0.3,17.7-10.1,26-18.9,28.1v15.9l17,0.9l24.8-35.6l-0.2-1.9l-0.1-16.5l-22.7,5.5
				C115.8,119.2,115.8,120.4,115.8,121.6L115.8,121.6z"/>
			<path class="st1" d="M66.8,116.5l0.7,9.7l44.4-10.8c-0.7-3.2-1.8-6.3-3.1-9L66.8,116.5L66.8,116.5z"/>
		</g>
		<line class="st1" x1="206.9" y1="154.8" x2="207" y2="154.1"/>
	</g>
</g>
</svg>
