<?xml version="1.0" encoding="utf-8"?>
<!-- Generator: Adobe Illustrator 27.1.1, SVG Export Plug-In . SVG Version: 6.00 Build 0)  -->
<svg version="1.1" id="Layer_2_00000012437993289664328230000011356532891749088957_"
	 xmlns="http://www.w3.org/2000/svg" xmlns:xlink="http://www.w3.org/1999/xlink" x="0px" y="0px" viewBox="0 0 557.5 92.1"
	 style="enable-background:new 0 0 557.5 92.1;" xml:space="preserve">
<style type="text/css">
	.st0{fill:#F59E0B;}
</style>
<g>
	<path class="st0" d="M136.7,65.5V34.7h-19.4v30.8h-11.5V34.7h-5.4v-9.5h5.4v-0.4c0-10.5,4.8-14.1,13.4-14.1c2.8,0,6.1,0.4,9.8,1.1
		v8.8c-2.7-0.2-4.8-0.4-6.5-0.4c-3.7,0-5.2,0.9-5.2,4.6v0.4h19.4l11.5-0.6v40.9L136.7,65.5L136.7,65.5z M136.7,20.3v-9.2h11.5v9.2
		H136.7z"/>
	<path class="st0" d="M171.2,25.2H183v9.5h-11.8v17.7c0,3.7,1.5,4.6,5.2,4.6c1.7,0,3.8-0.2,6.5-0.4v8.8c-3.7,0.7-7,1.2-9.8,1.2
		c-8.6,0-13.4-3.7-13.4-14.2V34.7h-5.4v-9.5h5.4v-10l11.5-1.1V25.2z"/>
</g>
<g>
	<path class="st0" d="M215.9,60.5l0.1,6v14.9h-11.8V25.8l11.4-1.2l0.3,3.2l0.1,0.1c5.6-2.4,11.9-3.9,19.2-3.9
		c18.3,0,26.6,9.2,26.6,21.5s-9,22.1-24.9,22.1C225.6,67.7,218.5,63,215.9,60.5L215.9,60.5L215.9,60.5z M216,37.4v12.2
		c0.5,2.8,9.7,7.2,19.4,7.2s14.4-4.6,14.4-11.1S246,35,234.1,35C228.1,35,221.8,36.2,216,37.4L216,37.4z"/>
	<path class="st0" d="M268.1,25.2h11.8V46c0,6.4,2.8,10.7,14.8,10.7c9.7,0,16.4-4.3,16.9-7.2V25.2h11.8v41.2h-10.4l-0.8-6l-0.1-0.1
		c-3.1,3.1-9.6,7.2-20.4,7.2c-17.4,0-23.6-9.2-23.6-21.5L268.1,25.2L268.1,25.2z"/>
	<path class="st0" d="M331.2,25.8l11.4-1.2l0.3,6.1l0.1,0.1c6.5-5.5,13.8-6.7,21.2-6.7l-0.5,11.6c-6.8-0.7-16.3,0.2-20.7,4.6v26.2
		h-11.8V25.8z"/>
	<path class="st0" d="M370.5,53.4c11.2,2.4,17.6,3.3,25.7,3.3c4.2,0,16.4-0.2,16.4-3.3c0-2.4-7.3-2.2-15.9-2.4
		c-12.3-0.3-27.3-1.5-27.3-13c0-13.2,17.1-14,26.5-14c7.6,0,16,0.8,25.1,2.4l-1.9,10.8c-10.1-1.7-16.1-2.2-25.4-2.2
		c-7.6,0-12.3,0.6-12.3,3.1c0,2.8,6.8,2.8,15,2.8c12.5,0.2,28.2,0.7,28.2,12.4c0,13.7-21.6,14.3-29.8,14.3c-9.4,0-16.4-0.9-26.7-3.5
		L370.5,53.4L370.5,53.4z"/>
	<path class="st0" d="M430.9,25.2h11.8V46c0,6.4,2.8,10.7,14.8,10.7c9.7,0,16.4-4.3,16.9-7.2V25.2h11.8v41.2h-10.4l-0.8-6l-0.1-0.1
		c-3.1,3.1-9.6,7.2-20.4,7.2c-17.4,0-23.6-9.2-23.6-21.5L430.9,25.2L430.9,25.2z"/>
	<path class="st0" d="M495.5,20.3v-9.4h11.8v9.4H495.5z M495.5,66.5V25.8l11.8-1.2v41.9H495.5z"/>
	<path class="st0" d="M530.9,25.2h12V35h-12v18.2c0,3.8,1.6,4.7,5.3,4.7c1.7,0,3.9-0.2,6.7-0.4v9c-3.8,0.7-7.2,1.2-10.1,1.2
		c-8.8,0-13.8-3.8-13.8-14.5V35h-5.5v-9.7h5.5V15l11.8-1.2L530.9,25.2L530.9,25.2z"/>
</g>
<g>
	<g>
		<path class="st0" d="M36.8,58.4v-1.1H44c-0.3-3.5-3.2-6.2-6.8-6.2c-3.8,0-6.8,3-6.8,6.8s3,6.8,6.8,6.8s6.5-2.7,6.8-6.2H36.8z"/>
		<path class="st0" d="M60.8,57.3c-0.3-3.5-3.2-6.2-6.8-6.2s-6.5,2.7-6.8,6.2H60.8L60.8,57.3z"/>
		<path class="st0" d="M77.6,57.3c-0.3-3.5-3.2-6.2-6.8-6.2s-6.5,2.7-6.8,6.2H77.6L77.6,57.3z"/>
		<path class="st0" d="M87.6,51.1c-3.6,0-6.5,2.7-6.8,6.2h7.7v1.1h-7.7c0.3,3.5,3.2,6.2,6.8,6.2c3.8,0,6.8-3,6.8-6.8
			S91.3,51.1,87.6,51.1z"/>
		<path class="st0" d="M64,58.4c0.3,3.5,3.2,6.2,6.8,6.2s6.5-2.7,6.8-6.2H64L64,58.4z"/>
		<path class="st0" d="M47.3,58.4c0.3,3.5,3.2,6.2,6.8,6.2s6.5-2.7,6.8-6.2H47.3L47.3,58.4z"/>
	</g>
	<rect x="18.6" y="35.3" class="st0" width="13.6" height="1.1"/>
	<g>
		<polygon class="st0" points="14.6,30 14.6,31.1 35.5,31.1 35.4,30 		"/>
		<polygon class="st0" points="23.2,40.6 23.2,41.8 36.3,41.8 36.2,40.6 		"/>
		<path class="st0" d="M75.1,41.2c1.6,0.1,3.2-0.3,4.5-1c1.7-1,2.7-2.4,3-4.2l0-0.2c-0.7-0.4-1.6-0.8-2.5-1.1
			c-0.8-0.3-1.6-0.4-2.3-0.6l-3.2-0.5l-5,7.4C69.6,40.9,75.1,41.2,75.1,41.2z"/>
		<path class="st0" d="M55.2,40.2l6.7-9.6c0,0,0,0,0,0c-0.8-0.3-1.5-0.8-1.9-1.5L52.3,40L55.2,40.2L55.2,40.2z"/>
		<polygon class="st0" points="68.3,40.8 73.4,33.3 71.1,32.9 65.9,40.7 		"/>
		<path class="st0" d="M51.4,22.3l7.9-1.9l0-3.3l-8.9,2.1C50.8,20.2,51.2,21.2,51.4,22.3L51.4,22.3z"/>
		<polygon class="st0" points="64.6,40.7 69.9,32.6 63,31 56.5,40.2 		"/>
		<path class="st0" d="M48.7,18.5c-1.3-2.2-3-4-3.1-4l-11.1,2.7l0.3,4.6L48.7,18.5L48.7,18.5z"/>
		<path class="st0" d="M59.2,15.9l0-4.8l-12.4,3.1c0.5,0.6,1.9,2,3,4C49.8,18.2,59.2,15.9,59.2,15.9z"/>
		<path class="st0" d="M83.7,36.4c-0.4,2-1.6,3.7-3.5,4.8c-1.3,0.8-2.9,1.2-4.6,1.2c-0.2,0-0.4,0-0.5,0l-31-1.6v-7.5l0.5-0.1
			c2.7-0.4,5.8-2.9,6-8.5c0-0.3,0-0.6,0-1l-15.2,3.7l0.2,2.5H39v1.1h-3.5l0.7,9.5H39v1.1h-2.7l0.6,8.2h51.9
			C88.8,50,90.1,41.1,83.7,36.4z"/>
		<path class="st0" d="M51.6,24.7c-0.1,6-3.4,8.8-6.4,9.5v5.4L51,40l8.4-12.1l-0.1-0.6l0-5.6l-7.7,1.9
			C51.6,23.9,51.6,24.3,51.6,24.7L51.6,24.7z"/>
		<path class="st0" d="M34.9,23l0.2,3.3l15.1-3.7c-0.2-1.1-0.6-2.1-1.1-3.1L34.9,23L34.9,23z"/>
	</g>
	<line class="st0" x1="82.6" y1="36" x2="82.7" y2="35.7"/>
</g>
<rect x="23.8" y="64.1" class="st0" width="124.4" height="1.9"/>
</svg>
