<?xml version="1.0" encoding="UTF-8"?><svg id="Layer_2" xmlns="http://www.w3.org/2000/svg" viewBox="0 0 557.51 92.05"><defs><style>.cls-1{fill:#f59e0b;}</style></defs><g><path d="m136.67,65.47v-30.79h-19.43v30.79h-11.52v-30.79h-5.38v-9.52h5.38v-.38c0-10.52,4.84-14.13,13.44-14.13,2.84,0,6.14.38,9.83,1.07v8.83c-2.69-.23-4.84-.38-6.53-.38-3.69,0-5.22.92-5.22,4.61v.38h19.43l11.52-.61v40.93h-11.52Zm0-45.15v-9.21h11.52v9.21h-11.52Z"/><path d="m171.22,25.16h11.75v9.52h-11.75v17.74c0,3.69,1.54,4.61,5.22,4.61,1.69,0,3.84-.23,6.53-.38v8.83c-3.69.69-6.99,1.15-9.83,1.15-8.6,0-13.44-3.69-13.44-14.21v-17.74h-5.37v-9.52h5.37v-9.98l11.52-1.15v11.13Z"/></g><g><path d="m215.94,60.51l.08,5.97v14.93h-11.78V25.78l11.39-1.18.31,3.22.08.08c5.58-2.36,11.86-3.85,19.25-3.85,18.3,0,26.55,9.19,26.55,21.53s-9.03,22.08-24.9,22.08c-11.31,0-18.38-4.71-20.9-7.23l-.08.08Zm.08-23.1v12.18c.47,2.83,9.66,7.15,19.4,7.15s14.38-4.64,14.38-11.08-3.77-10.68-15.71-10.68c-5.97,0-12.26,1.18-18.07,2.44Z"/><path d="m268.1,25.23h11.78v20.82c0,6.36,2.83,10.68,14.77,10.68,9.74,0,16.42-4.32,16.89-7.15v-24.35h11.78v41.24h-10.37l-.79-5.97-.08-.08c-3.14,3.06-9.58,7.23-20.35,7.23-17.44,0-23.65-9.19-23.65-21.53v-20.9Z"/><path d="m331.18,25.78l11.39-1.18.31,6.05.08.08c6.52-5.5,13.83-6.68,21.21-6.68l-.47,11.55c-6.76-.71-16.26.24-20.74,4.64v26.24h-11.78V25.78Z"/><path d="m370.46,53.44c11.16,2.44,17.6,3.3,25.69,3.3,4.24,0,16.42-.16,16.42-3.3,0-2.44-7.31-2.2-15.87-2.36-12.33-.31-27.34-1.49-27.34-13.04,0-13.2,17.13-13.98,26.47-13.98,7.62,0,16.03.79,25.14,2.36l-1.89,10.84c-10.06-1.73-16.1-2.2-25.37-2.2-7.62,0-12.33.63-12.33,3.06,0,2.75,6.83,2.75,15,2.83,12.49.16,28.2.71,28.2,12.41,0,13.67-21.6,14.3-29.77,14.3-9.35,0-16.42-.86-26.71-3.46l2.36-10.76Z"/><path d="m430.86,25.23h11.78v20.82c0,6.36,2.83,10.68,14.77,10.68,9.74,0,16.42-4.32,16.89-7.15v-24.35h11.78v41.24h-10.37l-.79-5.97-.08-.08c-3.14,3.06-9.58,7.23-20.35,7.23-17.44,0-23.65-9.19-23.65-21.53v-20.9Z"/><path d="m495.51,20.28v-9.43h11.78v9.43h-11.78Zm0,46.19V25.78l11.78-1.18v41.87h-11.78Z"/><path d="m530.86,25.23h12.02v9.74h-12.02v18.15c0,3.77,1.57,4.71,5.34,4.71,1.73,0,3.93-.24,6.68-.39v9.03c-3.77.71-7.15,1.18-10.06,1.18-8.8,0-13.75-3.77-13.75-14.53v-18.15h-5.5v-9.74h5.5v-10.21l11.78-1.18v11.39Z"/></g><g><g><path class="cls-1" d="m36.79,58.43v-1.14h7.25c-.29-3.48-3.21-6.22-6.76-6.22-3.75,0-6.79,3.04-6.79,6.79s3.04,6.79,6.79,6.79,6.48-2.74,6.76-6.22h-7.25Z"/><path class="cls-1" d="m60.8,57.29c-.29-3.48-3.21-6.22-6.76-6.22s-6.48,2.74-6.76,6.22h13.53Z"/><path class="cls-1" d="m77.56,57.29c-.29-3.48-3.21-6.22-6.76-6.22s-6.48,2.74-6.76,6.22h13.53Z"/><path class="cls-1" d="m87.55,51.07c-3.56,0-6.48,2.74-6.76,6.22h7.66v1.14h-7.66c.29,3.48,3.21,6.22,6.76,6.22,3.75,0,6.79-3.04,6.79-6.79s-3.04-6.79-6.79-6.79Z"/><path class="cls-1" d="m64.03,58.43c.29,3.48,3.21,6.22,6.76,6.22s6.48-2.74,6.76-6.22h-13.53Z"/><path class="cls-1" d="m47.27,58.43c.29,3.48,3.21,6.22,6.76,6.22s6.48-2.74,6.76-6.22h-13.53Z"/></g><rect class="cls-1" x="18.62" y="35.29" width="13.64" height="1.14"/><g><polygon class="cls-1" points="14.63 29.97 14.63 31.11 35.51 31.11 35.43 29.97 14.63 29.97"/><polygon class="cls-1" points="23.19 40.64 23.19 41.78 36.27 41.78 36.19 40.64 23.19 40.64"/><path class="cls-1" d="m75.13,41.19c1.64.08,3.19-.26,4.48-.99,1.7-.96,2.72-2.38,3.01-4.22l.03-.24c-.73-.42-1.55-.8-2.47-1.11-.76-.26-1.55-.42-2.35-.56l-3.19-.55-5.01,7.39,5.5.28Z"/><path class="cls-1" d="m55.19,40.18l6.66-9.56s0,0-.01,0c-.82-.27-1.49-.81-1.93-1.5l-7.59,10.92,2.87.15Z"/><polygon class="cls-1" points="68.3 40.84 73.41 33.3 71.11 32.86 65.89 40.72 68.3 40.84"/><path class="cls-1" d="m51.39,22.33l7.89-1.93-.04-3.27-8.89,2.13c.44.94.81,1.98,1.03,3.07Z"/><polygon class="cls-1" points="64.56 40.65 69.91 32.61 62.99 30.97 56.53 40.25 64.56 40.65"/><path class="cls-1" d="m48.65,18.49c-1.31-2.25-3.04-3.99-3.07-4.02l-11.06,2.73.33,4.58,13.8-3.3Z"/><path class="cls-1" d="m59.23,15.95l-.04-4.84-12.37,3.06c.55.57,1.88,2.03,3,4.04l9.41-2.26Z"/><path class="cls-1" d="m83.7,36.42c-.4,2.04-1.62,3.69-3.53,4.77-1.34.76-2.91,1.15-4.56,1.15-.18,0-.36,0-.54-.01l-31.03-1.57v-7.46l.48-.08c2.68-.42,5.84-2.91,5.95-8.54,0-.32,0-.64-.03-.95l-15.19,3.69.18,2.55h3.56v1.14h-3.48l.68,9.53h2.8v1.14h-2.72l.58,8.19h51.9s1.33-8.91-5.05-13.55Z"/><path class="cls-1" d="m51.61,24.71c-.12,6.01-3.43,8.85-6.43,9.55v5.42l5.79.29,8.42-12.12-.06-.64-.05-5.62-7.73,1.87c.04.41.06.82.05,1.24Z"/><path class="cls-1" d="m34.93,22.97l.23,3.29,15.11-3.66c-.22-1.1-.61-2.13-1.07-3.07l-14.28,3.44Z"/></g><line class="cls-1" x1="82.62" y1="35.98" x2="82.65" y2="35.74"/></g><rect x="23.75" y="64.08" width="124.44" height="1.94"/></svg>