<svg xmlns="http://www.w3.org/2000/svg" xmlns:xlink="http://www.w3.org/1999/xlink" width="500" zoomAndPan="magnify" viewBox="0 0 375 149.999998" height="200" preserveAspectRatio="xMidYMid meet" version="1.0"><defs><clipPath id="3d548cbe23"><path d="M 126.835938 25.027344 L 231.085938 25.027344 L 231.085938 124.777344 L 126.835938 124.777344 Z M 126.835938 25.027344 " clip-rule="nonzero"/></clipPath><clipPath id="491836e5c6"><path d="M 251.3125 39 L 375 39 L 375 111.496094 L 251.3125 111.496094 Z M 251.3125 39 " clip-rule="nonzero"/></clipPath></defs><g clip-path="url(#3d548cbe23)"><path fill="#ffffff" d="M 178.132812 25.027344 C 176.726562 25.027344 175.652344 26.097656 175.652344 27.5 L 175.652344 29.972656 L 146.703125 29.972656 C 145.546875 29.972656 144.472656 30.796875 144.304688 31.953125 L 134.628906 80.011719 C 133.804688 84.132812 134.878906 88.421875 137.523438 91.636719 C 140.171875 94.933594 144.140625 96.75 148.359375 96.75 L 212.289062 96.75 C 218.492188 96.75 223.539062 91.71875 223.539062 85.535156 C 223.539062 80.839844 220.558594 76.632812 216.257812 74.984375 L 195.335938 67.152344 C 195.5 66.65625 195.5 66.164062 195.25 65.667969 L 193.515625 61.050781 C 193.265625 60.476562 192.855469 59.898438 192.191406 59.652344 C 191.613281 59.402344 191.035156 59.320312 190.375 59.570312 L 190.375 51.40625 C 191.777344 51.40625 192.855469 50.335938 192.855469 48.933594 L 192.855469 43.988281 C 192.855469 42.585938 191.777344 41.515625 190.375 41.515625 L 190.375 35.742188 C 190.539062 29.808594 185.742188 25.027344 179.785156 25.027344 Z M 163.246094 43.988281 L 185.574219 43.988281 C 186.980469 43.988281 188.058594 45.058594 188.058594 46.460938 C 188.058594 47.863281 186.980469 48.933594 185.574219 48.933594 L 163.246094 48.933594 C 161.839844 48.933594 160.765625 47.863281 160.765625 46.460938 C 160.765625 45.058594 161.839844 43.988281 163.246094 43.988281 Z M 186.488281 63.421875 C 187.648438 63.308594 188.769531 64.019531 189.132812 65.171875 C 189.546875 66.492188 188.882812 67.894531 187.5625 68.308594 L 167.214844 74.902344 C 166.96875 74.984375 166.71875 74.984375 166.472656 74.984375 C 165.394531 74.984375 164.484375 74.324219 164.074219 73.253906 C 163.660156 71.933594 164.320312 70.53125 165.644531 70.121094 L 185.988281 63.523438 C 186.15625 63.472656 186.320312 63.441406 186.488281 63.421875 Z M 148.441406 86.855469 L 211.546875 86.855469 C 212.953125 86.855469 214.027344 87.925781 214.027344 89.328125 C 214.027344 90.730469 212.953125 91.800781 211.546875 91.800781 L 148.441406 91.800781 C 147.035156 91.800781 145.960938 90.730469 145.960938 89.328125 C 145.960938 87.925781 147.035156 86.855469 148.441406 86.855469 Z M 139.261719 100.046875 C 132.398438 100.046875 126.855469 105.570312 126.855469 112.410156 C 126.855469 119.253906 132.398438 124.777344 139.261719 124.777344 C 146.125 124.777344 151.667969 119.253906 151.667969 112.410156 C 151.667969 105.570312 146.125 100.046875 139.261719 100.046875 Z M 165.726562 100.046875 C 158.863281 100.046875 153.320312 105.570312 153.320312 112.410156 C 153.320312 119.253906 158.863281 124.777344 165.726562 124.777344 C 172.589844 124.777344 178.132812 119.253906 178.132812 112.410156 C 178.132812 105.570312 172.589844 100.046875 165.726562 100.046875 Z M 192.191406 100.046875 C 185.328125 100.046875 179.785156 105.570312 179.785156 112.410156 C 179.785156 119.253906 185.328125 124.777344 192.191406 124.777344 C 199.054688 124.777344 204.597656 119.253906 204.597656 112.410156 C 204.597656 105.570312 199.054688 100.046875 192.191406 100.046875 Z M 218.65625 100.046875 C 211.792969 100.046875 206.25 105.570312 206.25 112.410156 C 206.25 119.253906 211.792969 124.777344 218.65625 124.777344 C 225.523438 124.777344 231.0625 119.253906 231.0625 112.410156 C 231.0625 105.570312 225.523438 100.046875 218.65625 100.046875 Z M 139.261719 104.992188 C 143.394531 104.992188 146.703125 108.289062 146.703125 112.410156 C 146.703125 116.535156 143.394531 119.832031 139.261719 119.832031 C 135.125 119.832031 131.816406 116.535156 131.816406 112.410156 C 131.816406 108.289062 135.125 104.992188 139.261719 104.992188 Z M 165.726562 104.992188 C 169.863281 104.992188 173.171875 108.289062 173.171875 112.410156 C 173.171875 116.535156 169.863281 119.832031 165.726562 119.832031 C 161.589844 119.832031 158.28125 116.535156 158.28125 112.410156 C 158.28125 108.289062 161.589844 104.992188 165.726562 104.992188 Z M 192.191406 104.992188 C 196.328125 104.992188 199.636719 108.289062 199.636719 112.410156 C 199.636719 116.535156 196.328125 119.832031 192.191406 119.832031 C 188.058594 119.832031 184.75 116.535156 184.75 112.410156 C 184.75 108.289062 188.058594 104.992188 192.191406 104.992188 Z M 218.65625 104.992188 C 222.792969 104.992188 226.101562 108.289062 226.101562 112.410156 C 226.101562 116.535156 222.792969 119.832031 218.65625 119.832031 C 214.523438 119.832031 211.214844 116.535156 211.214844 112.410156 C 211.214844 108.289062 214.523438 104.992188 218.65625 104.992188 Z M 218.65625 104.992188 " fill-opacity="1" fill-rule="nonzero"/></g><g clip-path="url(#491836e5c6)"><path fill="#ffffff" d="M 351.492188 64.527344 C 349.136719 64.527344 346.871094 64.886719 344.726562 65.535156 L 337.359375 47.042969 L 347.179688 42.957031 C 348.214844 42.523438 348.707031 41.332031 348.277344 40.292969 C 347.847656 39.253906 346.65625 38.757812 345.621094 39.191406 L 333.949219 44.046875 C 333.875 44.078125 333.804688 44.125 333.734375 44.164062 C 333.691406 44.1875 333.644531 44.207031 333.601562 44.234375 C 333.535156 44.277344 333.480469 44.332031 333.417969 44.382812 C 333.378906 44.417969 333.332031 44.449219 333.292969 44.488281 C 333.242188 44.542969 333.199219 44.601562 333.152344 44.65625 C 333.117188 44.703125 333.074219 44.746094 333.042969 44.792969 C 333.003906 44.851562 332.976562 44.917969 332.941406 44.980469 C 332.914062 45.03125 332.882812 45.082031 332.859375 45.136719 C 332.832031 45.203125 332.816406 45.269531 332.792969 45.335938 C 332.777344 45.394531 332.753906 45.453125 332.742188 45.511719 C 332.726562 45.578125 332.722656 45.652344 332.714844 45.722656 C 332.710938 45.78125 332.699219 45.839844 332.699219 45.902344 C 332.695312 45.972656 332.707031 46.046875 332.714844 46.117188 C 332.71875 46.179688 332.71875 46.238281 332.730469 46.300781 C 332.746094 46.375 332.773438 46.445312 332.792969 46.519531 C 332.8125 46.574219 332.820312 46.628906 332.839844 46.683594 L 332.851562 46.710938 L 334.101562 49.84375 L 306.363281 61.039062 L 299.308594 60.382812 L 294.417969 44.855469 L 302.253906 44.855469 C 303.375 44.855469 304.285156 43.941406 304.285156 42.816406 C 304.285156 41.691406 303.375 40.78125 302.253906 40.78125 L 285.0625 40.78125 C 283.941406 40.78125 283.03125 41.691406 283.03125 42.816406 C 283.03125 43.941406 283.941406 44.855469 285.0625 44.855469 L 290.15625 44.855469 L 297.230469 67.308594 L 292.675781 70.539062 C 288.375 65.5 282.003906 62.292969 274.886719 62.292969 C 261.972656 62.292969 251.464844 72.828125 251.464844 85.777344 C 251.464844 98.730469 261.972656 109.265625 274.886719 109.265625 C 285.941406 109.265625 295.210938 101.535156 297.65625 91.1875 L 299.875 91.527344 C 300.230469 93.074219 301.140625 94.398438 302.390625 95.289062 L 301.054688 99.796875 C 300.734375 100.875 301.347656 102.011719 302.421875 102.332031 C 302.617188 102.390625 302.8125 102.414062 303.003906 102.414062 C 303.878906 102.414062 304.6875 101.84375 304.949219 100.960938 L 306.289062 96.445312 C 309.675781 96.3125 312.394531 93.53125 312.394531 90.105469 C 312.394531 89.085938 312.132812 88.136719 311.707031 87.28125 L 336.285156 55.328125 L 340.957031 67.066406 C 333.324219 70.941406 328.070312 78.867188 328.070312 88.015625 C 328.070312 100.964844 338.578125 111.503906 351.492188 111.503906 C 364.40625 111.503906 374.910156 100.964844 374.910156 88.015625 C 374.910156 75.066406 364.40625 64.527344 351.492188 64.527344 Z M 300.636719 64.597656 L 301.003906 64.632812 L 300.710938 64.839844 Z M 274.886719 105.191406 C 264.214844 105.191406 255.53125 96.480469 255.53125 85.777344 C 255.53125 75.074219 264.214844 66.367188 274.886719 66.367188 C 280.632812 66.367188 285.789062 68.90625 289.335938 72.90625 L 273.714844 83.980469 C 273.035156 84.460938 272.71875 85.304688 272.910156 86.113281 C 273.101562 86.921875 273.761719 87.535156 274.582031 87.660156 L 293.621094 90.570312 C 291.484375 98.960938 283.90625 105.191406 274.886719 105.191406 Z M 294.246094 85.777344 C 294.246094 86.035156 294.214844 86.285156 294.207031 86.539062 L 280.175781 84.394531 L 291.710938 76.214844 C 293.316406 79.039062 294.246094 82.300781 294.246094 85.777344 Z M 295.03125 73.859375 L 298.515625 71.390625 L 302.710938 84.714844 C 301.65625 85.375 300.808594 86.328125 300.289062 87.46875 L 298.238281 87.15625 C 298.265625 86.695312 298.308594 86.242188 298.308594 85.777344 C 298.308594 81.425781 297.097656 77.359375 295.03125 73.859375 Z M 306.046875 92.394531 C 304.789062 92.394531 303.765625 91.367188 303.765625 90.105469 C 303.765625 88.84375 304.789062 87.816406 306.046875 87.816406 C 306.671875 87.816406 307.238281 88.070312 307.652344 88.480469 C 307.667969 88.5 307.6875 88.523438 307.707031 88.542969 C 308.089844 88.953125 308.328125 89.5 308.328125 90.105469 C 308.328125 91.367188 307.304688 92.394531 306.046875 92.394531 Z M 310.53125 82.136719 L 311.042969 80.414062 C 311.363281 79.335938 310.75 78.199219 309.675781 77.878906 C 308.601562 77.554688 307.46875 78.171875 307.148438 79.25 L 306.230469 82.351562 L 301.996094 68.917969 L 307.648438 64.914062 L 331.039062 55.472656 Z M 351.492188 107.429688 C 340.816406 107.429688 332.132812 98.71875 332.132812 88.015625 C 332.132812 80.578125 336.328125 74.113281 342.46875 70.855469 L 349.605469 88.773438 C 349.921875 89.570312 350.683594 90.054688 351.492188 90.054688 C 351.742188 90.054688 351.996094 90.007812 352.242188 89.90625 C 353.285156 89.492188 353.792969 88.304688 353.378906 87.257812 L 346.242188 69.347656 C 347.914062 68.875 349.671875 68.605469 351.492188 68.605469 C 362.164062 68.605469 370.847656 77.3125 370.847656 88.015625 C 370.847656 98.71875 362.164062 107.429688 351.492188 107.429688 Z M 351.492188 107.429688 " fill-opacity="1" fill-rule="nonzero"/></g><path fill="#ffffff" d="M 33.980469 35.070312 L 43.503906 27.582031 C 45.109375 26.320312 47.484375 27.011719 48.160156 28.9375 L 50.679688 36.097656 C 51.453125 38.292969 49.917969 40.617188 47.59375 40.765625 C 44.558594 40.960938 40.046875 40.546875 34.34375 38 C 33.160156 37.472656 32.957031 35.867188 33.980469 35.070312 Z M 33.980469 35.070312 " fill-opacity="1" fill-rule="nonzero"/><path fill="#ffffff" d="M 27.03125 41.738281 C 27.070312 41.699219 27.105469 41.660156 27.144531 41.625 C 27.992188 40.765625 29.246094 40.449219 30.402344 40.792969 L 34.613281 42.035156 C 37.726562 42.957031 40.929688 43.539062 44.167969 43.769531 L 51.671875 44.304688 C 53.230469 44.417969 54.554688 45.480469 54.996094 46.976562 L 58.433594 58.558594 C 59.289062 61.4375 59.722656 64.425781 59.722656 67.429688 L 59.722656 80.96875 C 59.722656 81.835938 58.617188 82.199219 58.101562 81.503906 L 46.535156 65.910156 C 44.167969 62.726562 41.507812 59.765625 38.589844 57.074219 L 27.214844 46.597656 C 25.816406 45.308594 25.710938 43.109375 27.03125 41.738281 Z M 27.03125 41.738281 " fill-opacity="1" fill-rule="nonzero"/><path fill="#ffffff" d="M 103.824219 105.699219 L 88.226562 85.230469 L 86.386719 77.980469 L 76.523438 79.46875 C 75.550781 79.613281 74.644531 78.945312 74.496094 77.972656 C 74.347656 77 75.019531 76.089844 75.992188 75.945312 L 85.503906 74.507812 L 83.335938 65.964844 L 74.007812 67.375 C 73.035156 67.519531 72.125 66.851562 71.980469 65.878906 C 71.832031 64.90625 72.503906 63.996094 73.476562 63.851562 L 82.453125 62.496094 L 77.59375 43.363281 C 77.269531 42.074219 75.699219 41.574219 74.691406 42.4375 C 69.65625 46.742188 64.386719 46.9375 61.285156 46.535156 C 60.011719 46.371094 58.992188 47.558594 59.332031 48.796875 L 61.773438 57.625 C 63.324219 63.238281 63.929688 69.074219 63.558594 74.890625 L 62.976562 83.980469 C 62.71875 88.023438 64.199219 91.988281 67.046875 94.871094 L 72.84375 100.746094 C 77.976562 105.945312 84.128906 110.023438 90.917969 112.71875 L 101.363281 116.863281 C 103.203125 117.59375 105.261719 116.519531 105.714844 114.59375 C 106.449219 111.496094 105.753906 108.234375 103.824219 105.699219 Z M 103.824219 105.699219 " fill-opacity="1" fill-rule="nonzero"/><path fill="#ffffff" d="M 22.070312 79.550781 L 1.621094 79.550781 C 0.726562 79.550781 0 78.828125 0 77.929688 L 0 75.925781 C 0 75.03125 0.726562 74.304688 1.621094 74.304688 L 22.070312 74.304688 C 22.96875 74.304688 23.691406 75.03125 23.691406 75.925781 L 23.691406 77.929688 C 23.691406 78.828125 22.96875 79.550781 22.070312 79.550781 Z M 22.070312 79.550781 " fill-opacity="1" fill-rule="nonzero"/><path fill="#ffffff" d="M 38.296875 98.082031 L 1.621094 98.082031 C 0.726562 98.082031 0 97.355469 0 96.460938 L 0 94.457031 C 0 93.558594 0.726562 92.835938 1.621094 92.835938 L 38.296875 92.835938 C 39.191406 92.835938 39.917969 93.558594 39.917969 94.457031 L 39.917969 96.460938 C 39.917969 97.355469 39.191406 98.082031 38.296875 98.082031 Z M 38.296875 98.082031 " fill-opacity="1" fill-rule="nonzero"/><path fill="#ffffff" d="M 56.578125 115.542969 L 1.621094 115.542969 C 0.726562 115.542969 0 114.816406 0 113.921875 L 0 111.914062 C 0 111.019531 0.726562 110.292969 1.621094 110.292969 L 56.578125 110.292969 C 57.476562 110.292969 58.199219 111.019531 58.199219 111.914062 L 58.199219 113.921875 C 58.199219 114.816406 57.476562 115.542969 56.578125 115.542969 Z M 56.578125 115.542969 " fill-opacity="1" fill-rule="nonzero"/><path fill="#ffffff" d="M 98.199219 120.828125 C 98.054688 120.554688 97.804688 120.359375 97.5 120.292969 C 94.011719 119.492188 71.6875 113.535156 57.707031 89.390625 C 44.980469 67.417969 28.761719 52.851562 23.8125 48.6875 C 22.941406 47.957031 21.640625 48.0625 20.902344 48.929688 C 12.457031 58.871094 24.265625 70.296875 31.472656 75.871094 C 33.574219 77.5 35.976562 78.664062 38.496094 79.515625 C 41.539062 80.542969 47.878906 84.90625 58.0625 101.980469 C 70.929688 123.570312 91.582031 123.019531 97.367188 122.390625 C 98.121094 122.308594 98.554688 121.496094 98.199219 120.828125 Z M 26.546875 62.902344 C 25.53125 62.902344 24.707031 62.074219 24.707031 61.058594 C 24.707031 60.042969 25.53125 59.21875 26.546875 59.21875 C 27.5625 59.21875 28.386719 60.042969 28.386719 61.058594 C 28.390625 62.078125 27.5625 62.902344 26.546875 62.902344 Z M 31.652344 68.148438 C 30.636719 68.148438 29.8125 67.324219 29.8125 66.308594 C 29.8125 65.289062 30.636719 64.46875 31.652344 64.46875 C 32.671875 64.46875 33.492188 65.292969 33.492188 66.308594 C 33.496094 67.324219 32.671875 68.148438 31.652344 68.148438 Z M 31.652344 68.148438 " fill-opacity="1" fill-rule="nonzero"/></svg>