<svg xmlns="http://www.w3.org/2000/svg" xmlns:xlink="http://www.w3.org/1999/xlink" width="500" zoomAndPan="magnify" viewBox="0 0 375 149.999998" height="200" preserveAspectRatio="xMidYMid meet" version="1.0"><defs><clipPath id="74430aab2d"><path d="M 126.746094 25.027344 L 230.996094 25.027344 L 230.996094 124.777344 L 126.746094 124.777344 Z M 126.746094 25.027344 " clip-rule="nonzero"/></clipPath><clipPath id="1c069cb508"><path d="M 251.136719 39 L 374.886719 39 L 374.886719 111.496094 L 251.136719 111.496094 Z M 251.136719 39 " clip-rule="nonzero"/></clipPath></defs><g clip-path="url(#74430aab2d)"><path fill="#f59e0b" d="M 178.042969 25.027344 C 176.636719 25.027344 175.5625 26.097656 175.5625 27.5 L 175.5625 29.972656 L 146.613281 29.972656 C 145.457031 29.972656 144.382812 30.796875 144.214844 31.953125 L 134.539062 80.011719 C 133.714844 84.132812 134.789062 88.421875 137.433594 91.636719 C 140.082031 94.933594 144.050781 96.75 148.269531 96.75 L 212.199219 96.75 C 218.402344 96.75 223.449219 91.71875 223.449219 85.535156 C 223.449219 80.839844 220.46875 76.632812 216.167969 74.984375 L 195.246094 67.152344 C 195.410156 66.65625 195.410156 66.164062 195.160156 65.667969 L 193.425781 61.050781 C 193.175781 60.476562 192.765625 59.898438 192.101562 59.652344 C 191.523438 59.402344 190.945312 59.320312 190.285156 59.570312 L 190.285156 51.40625 C 191.691406 51.40625 192.765625 50.335938 192.765625 48.933594 L 192.765625 43.988281 C 192.765625 42.585938 191.691406 41.515625 190.285156 41.515625 L 190.285156 35.742188 C 190.449219 29.808594 185.652344 25.027344 179.695312 25.027344 Z M 163.15625 43.988281 L 185.484375 43.988281 C 186.890625 43.988281 187.96875 45.058594 187.96875 46.460938 C 187.96875 47.863281 186.890625 48.933594 185.484375 48.933594 L 163.15625 48.933594 C 161.75 48.933594 160.675781 47.863281 160.675781 46.460938 C 160.675781 45.058594 161.75 43.988281 163.15625 43.988281 Z M 186.398438 63.421875 C 187.558594 63.308594 188.679688 64.019531 189.042969 65.171875 C 189.457031 66.492188 188.792969 67.894531 187.472656 68.308594 L 167.125 74.902344 C 166.878906 74.984375 166.628906 74.984375 166.382812 74.984375 C 165.304688 74.984375 164.394531 74.324219 163.984375 73.253906 C 163.570312 71.933594 164.230469 70.53125 165.554688 70.121094 L 185.898438 63.523438 C 186.066406 63.472656 186.230469 63.441406 186.398438 63.421875 Z M 148.351562 86.855469 L 211.457031 86.855469 C 212.863281 86.855469 213.9375 87.925781 213.9375 89.328125 C 213.9375 90.730469 212.863281 91.800781 211.457031 91.800781 L 148.351562 91.800781 C 146.945312 91.800781 145.871094 90.730469 145.871094 89.328125 C 145.871094 87.925781 146.945312 86.855469 148.351562 86.855469 Z M 139.171875 100.046875 C 132.308594 100.046875 126.765625 105.570312 126.765625 112.410156 C 126.765625 119.253906 132.308594 124.777344 139.171875 124.777344 C 146.035156 124.777344 151.578125 119.253906 151.578125 112.410156 C 151.578125 105.570312 146.035156 100.046875 139.171875 100.046875 Z M 165.636719 100.046875 C 158.773438 100.046875 153.230469 105.570312 153.230469 112.410156 C 153.230469 119.253906 158.773438 124.777344 165.636719 124.777344 C 172.5 124.777344 178.042969 119.253906 178.042969 112.410156 C 178.042969 105.570312 172.5 100.046875 165.636719 100.046875 Z M 192.101562 100.046875 C 185.238281 100.046875 179.695312 105.570312 179.695312 112.410156 C 179.695312 119.253906 185.238281 124.777344 192.101562 124.777344 C 198.96875 124.777344 204.507812 119.253906 204.507812 112.410156 C 204.507812 105.570312 198.96875 100.046875 192.101562 100.046875 Z M 218.566406 100.046875 C 211.703125 100.046875 206.164062 105.570312 206.164062 112.410156 C 206.164062 119.253906 211.703125 124.777344 218.566406 124.777344 C 225.433594 124.777344 230.972656 119.253906 230.972656 112.410156 C 230.972656 105.570312 225.433594 100.046875 218.566406 100.046875 Z M 139.171875 104.992188 C 143.308594 104.992188 146.613281 108.289062 146.613281 112.410156 C 146.613281 116.535156 143.308594 119.832031 139.171875 119.832031 C 135.035156 119.832031 131.726562 116.535156 131.726562 112.410156 C 131.726562 108.289062 135.035156 104.992188 139.171875 104.992188 Z M 165.636719 104.992188 C 169.773438 104.992188 173.082031 108.289062 173.082031 112.410156 C 173.082031 116.535156 169.773438 119.832031 165.636719 119.832031 C 161.5 119.832031 158.195312 116.535156 158.195312 112.410156 C 158.195312 108.289062 161.5 104.992188 165.636719 104.992188 Z M 192.101562 104.992188 C 196.238281 104.992188 199.546875 108.289062 199.546875 112.410156 C 199.546875 116.535156 196.238281 119.832031 192.101562 119.832031 C 187.96875 119.832031 184.660156 116.535156 184.660156 112.410156 C 184.660156 108.289062 187.96875 104.992188 192.101562 104.992188 Z M 218.566406 104.992188 C 222.703125 104.992188 226.011719 108.289062 226.011719 112.410156 C 226.011719 116.535156 222.703125 119.832031 218.566406 119.832031 C 214.433594 119.832031 211.125 116.535156 211.125 112.410156 C 211.125 108.289062 214.433594 104.992188 218.566406 104.992188 Z M 218.566406 104.992188 " fill-opacity="1" fill-rule="nonzero"/></g><g clip-path="url(#1c069cb508)"><path fill="#f59e0b" d="M 351.3125 64.527344 C 348.960938 64.527344 346.691406 64.886719 344.546875 65.535156 L 337.179688 47.042969 L 347 42.957031 C 348.035156 42.523438 348.527344 41.332031 348.097656 40.292969 C 347.667969 39.253906 346.476562 38.757812 345.441406 39.191406 L 333.769531 44.046875 C 333.695312 44.078125 333.625 44.125 333.554688 44.164062 C 333.511719 44.1875 333.464844 44.207031 333.421875 44.234375 C 333.355469 44.277344 333.300781 44.332031 333.242188 44.382812 C 333.199219 44.417969 333.152344 44.449219 333.113281 44.488281 C 333.0625 44.542969 333.019531 44.601562 332.972656 44.65625 C 332.9375 44.703125 332.894531 44.746094 332.863281 44.792969 C 332.824219 44.851562 332.796875 44.917969 332.761719 44.980469 C 332.734375 45.03125 332.703125 45.082031 332.679688 45.136719 C 332.652344 45.203125 332.636719 45.269531 332.613281 45.335938 C 332.597656 45.394531 332.574219 45.453125 332.5625 45.511719 C 332.546875 45.578125 332.542969 45.652344 332.535156 45.722656 C 332.53125 45.78125 332.519531 45.839844 332.519531 45.902344 C 332.515625 45.972656 332.527344 46.046875 332.535156 46.117188 C 332.542969 46.179688 332.539062 46.238281 332.550781 46.300781 C 332.566406 46.375 332.59375 46.445312 332.613281 46.519531 C 332.632812 46.574219 332.640625 46.628906 332.664062 46.683594 L 332.671875 46.710938 L 333.921875 49.84375 L 306.183594 61.039062 L 299.128906 60.382812 L 294.238281 44.855469 L 302.074219 44.855469 C 303.195312 44.855469 304.105469 43.941406 304.105469 42.816406 C 304.105469 41.691406 303.195312 40.78125 302.074219 40.78125 L 284.886719 40.78125 C 283.761719 40.78125 282.851562 41.691406 282.851562 42.816406 C 282.851562 43.941406 283.761719 44.855469 284.886719 44.855469 L 289.976562 44.855469 L 297.050781 67.308594 L 292.496094 70.539062 C 288.195312 65.5 281.824219 62.292969 274.707031 62.292969 C 261.792969 62.292969 251.285156 72.828125 251.285156 85.777344 C 251.285156 98.730469 261.792969 109.265625 274.707031 109.265625 C 285.761719 109.265625 295.03125 101.535156 297.476562 91.1875 L 299.695312 91.527344 C 300.050781 93.074219 300.960938 94.398438 302.214844 95.289062 L 300.875 99.796875 C 300.554688 100.875 301.167969 102.011719 302.242188 102.332031 C 302.4375 102.390625 302.632812 102.414062 302.824219 102.414062 C 303.699219 102.414062 304.507812 101.84375 304.769531 100.960938 L 306.109375 96.445312 C 309.496094 96.3125 312.214844 93.53125 312.214844 90.105469 C 312.214844 89.085938 311.953125 88.136719 311.527344 87.28125 L 336.105469 55.328125 L 340.777344 67.066406 C 333.144531 70.941406 327.890625 78.867188 327.890625 88.015625 C 327.890625 100.964844 338.398438 111.503906 351.3125 111.503906 C 364.226562 111.503906 374.734375 100.964844 374.734375 88.015625 C 374.734375 75.066406 364.226562 64.527344 351.3125 64.527344 Z M 300.457031 64.597656 L 300.824219 64.632812 L 300.535156 64.839844 Z M 274.707031 105.191406 C 264.035156 105.191406 255.351562 96.480469 255.351562 85.777344 C 255.351562 75.074219 264.035156 66.367188 274.707031 66.367188 C 280.453125 66.367188 285.609375 68.90625 289.15625 72.90625 L 273.535156 83.980469 C 272.859375 84.460938 272.539062 85.304688 272.730469 86.113281 C 272.921875 86.921875 273.582031 87.535156 274.402344 87.660156 L 293.445312 90.570312 C 291.304688 98.960938 283.730469 105.191406 274.707031 105.191406 Z M 294.066406 85.777344 C 294.066406 86.035156 294.035156 86.285156 294.027344 86.539062 L 279.996094 84.394531 L 291.53125 76.214844 C 293.136719 79.039062 294.066406 82.300781 294.066406 85.777344 Z M 294.851562 73.859375 L 298.335938 71.390625 L 302.53125 84.714844 C 301.476562 85.375 300.628906 86.328125 300.109375 87.46875 L 298.058594 87.15625 C 298.085938 86.695312 298.128906 86.242188 298.128906 85.777344 C 298.128906 81.425781 296.921875 77.359375 294.851562 73.859375 Z M 305.867188 92.394531 C 304.609375 92.394531 303.585938 91.367188 303.585938 90.105469 C 303.585938 88.84375 304.609375 87.816406 305.867188 87.816406 C 306.492188 87.816406 307.058594 88.070312 307.472656 88.480469 C 307.488281 88.5 307.507812 88.523438 307.527344 88.542969 C 307.910156 88.953125 308.148438 89.5 308.148438 90.105469 C 308.148438 91.367188 307.125 92.394531 305.867188 92.394531 Z M 310.355469 82.136719 L 310.863281 80.414062 C 311.183594 79.335938 310.570312 78.199219 309.496094 77.878906 C 308.421875 77.554688 307.289062 78.171875 306.96875 79.25 L 306.050781 82.351562 L 301.820312 68.917969 L 307.46875 64.914062 L 330.863281 55.472656 Z M 351.3125 107.429688 C 340.636719 107.429688 331.953125 98.71875 331.953125 88.015625 C 331.953125 80.578125 336.152344 74.113281 342.289062 70.855469 L 349.425781 88.773438 C 349.742188 89.570312 350.503906 90.054688 351.3125 90.054688 C 351.5625 90.054688 351.820312 90.007812 352.066406 89.90625 C 353.105469 89.492188 353.613281 88.304688 353.199219 87.257812 L 346.066406 69.347656 C 347.734375 68.875 349.492188 68.605469 351.3125 68.605469 C 361.984375 68.605469 370.667969 77.3125 370.667969 88.015625 C 370.667969 98.71875 361.984375 107.429688 351.3125 107.429688 Z M 351.3125 107.429688 " fill-opacity="1" fill-rule="nonzero"/></g><path fill="#f59e0b" d="M 33.980469 35.070312 L 43.503906 27.582031 C 45.109375 26.320312 47.484375 27.011719 48.160156 28.9375 L 50.679688 36.097656 C 51.453125 38.292969 49.917969 40.617188 47.59375 40.765625 C 44.558594 40.960938 40.046875 40.546875 34.34375 38 C 33.160156 37.472656 32.957031 35.867188 33.980469 35.070312 Z M 33.980469 35.070312 " fill-opacity="1" fill-rule="nonzero"/><path fill="#f59e0b" d="M 27.03125 41.738281 C 27.070312 41.699219 27.105469 41.660156 27.144531 41.625 C 27.992188 40.765625 29.246094 40.449219 30.402344 40.792969 L 34.613281 42.035156 C 37.726562 42.957031 40.929688 43.539062 44.167969 43.769531 L 51.671875 44.304688 C 53.230469 44.417969 54.554688 45.480469 54.996094 46.976562 L 58.433594 58.558594 C 59.289062 61.4375 59.722656 64.425781 59.722656 67.429688 L 59.722656 80.96875 C 59.722656 81.835938 58.617188 82.199219 58.101562 81.503906 L 46.535156 65.910156 C 44.167969 62.726562 41.507812 59.765625 38.589844 57.074219 L 27.214844 46.597656 C 25.816406 45.308594 25.710938 43.109375 27.03125 41.738281 Z M 27.03125 41.738281 " fill-opacity="1" fill-rule="nonzero"/><path fill="#f59e0b" d="M 103.824219 105.699219 L 88.226562 85.230469 L 86.386719 77.980469 L 76.523438 79.46875 C 75.550781 79.613281 74.644531 78.945312 74.496094 77.972656 C 74.347656 77 75.019531 76.089844 75.992188 75.945312 L 85.503906 74.507812 L 83.335938 65.964844 L 74.007812 67.375 C 73.035156 67.519531 72.125 66.851562 71.980469 65.878906 C 71.832031 64.90625 72.503906 63.996094 73.476562 63.851562 L 82.453125 62.496094 L 77.59375 43.363281 C 77.269531 42.074219 75.699219 41.574219 74.691406 42.4375 C 69.65625 46.742188 64.386719 46.9375 61.285156 46.535156 C 60.011719 46.371094 58.992188 47.558594 59.332031 48.796875 L 61.773438 57.625 C 63.324219 63.238281 63.929688 69.074219 63.558594 74.890625 L 62.976562 83.980469 C 62.71875 88.023438 64.199219 91.988281 67.046875 94.871094 L 72.84375 100.746094 C 77.976562 105.945312 84.128906 110.023438 90.917969 112.71875 L 101.363281 116.863281 C 103.203125 117.59375 105.261719 116.519531 105.714844 114.59375 C 106.449219 111.496094 105.753906 108.234375 103.824219 105.699219 Z M 103.824219 105.699219 " fill-opacity="1" fill-rule="nonzero"/><path fill="#f59e0b" d="M 22.070312 79.550781 L 1.621094 79.550781 C 0.726562 79.550781 0 78.828125 0 77.929688 L 0 75.925781 C 0 75.03125 0.726562 74.304688 1.621094 74.304688 L 22.070312 74.304688 C 22.96875 74.304688 23.691406 75.03125 23.691406 75.925781 L 23.691406 77.929688 C 23.691406 78.828125 22.96875 79.550781 22.070312 79.550781 Z M 22.070312 79.550781 " fill-opacity="1" fill-rule="nonzero"/><path fill="#f59e0b" d="M 38.296875 98.082031 L 1.621094 98.082031 C 0.726562 98.082031 0 97.355469 0 96.460938 L 0 94.457031 C 0 93.558594 0.726562 92.835938 1.621094 92.835938 L 38.296875 92.835938 C 39.191406 92.835938 39.917969 93.558594 39.917969 94.457031 L 39.917969 96.460938 C 39.917969 97.355469 39.191406 98.082031 38.296875 98.082031 Z M 38.296875 98.082031 " fill-opacity="1" fill-rule="nonzero"/><path fill="#f59e0b" d="M 56.578125 115.542969 L 1.621094 115.542969 C 0.726562 115.542969 0 114.816406 0 113.921875 L 0 111.914062 C 0 111.019531 0.726562 110.292969 1.621094 110.292969 L 56.578125 110.292969 C 57.476562 110.292969 58.199219 111.019531 58.199219 111.914062 L 58.199219 113.921875 C 58.199219 114.816406 57.476562 115.542969 56.578125 115.542969 Z M 56.578125 115.542969 " fill-opacity="1" fill-rule="nonzero"/><path fill="#f59e0b" d="M 98.199219 120.828125 C 98.054688 120.554688 97.804688 120.359375 97.5 120.292969 C 94.011719 119.492188 71.6875 113.535156 57.707031 89.390625 C 44.980469 67.417969 28.761719 52.851562 23.8125 48.6875 C 22.941406 47.957031 21.640625 48.0625 20.902344 48.929688 C 12.457031 58.871094 24.265625 70.296875 31.472656 75.871094 C 33.574219 77.5 35.976562 78.664062 38.496094 79.515625 C 41.539062 80.542969 47.878906 84.90625 58.0625 101.980469 C 70.929688 123.570312 91.582031 123.019531 97.367188 122.390625 C 98.121094 122.308594 98.554688 121.496094 98.199219 120.828125 Z M 26.546875 62.902344 C 25.53125 62.902344 24.707031 62.074219 24.707031 61.058594 C 24.707031 60.042969 25.53125 59.21875 26.546875 59.21875 C 27.5625 59.21875 28.386719 60.042969 28.386719 61.058594 C 28.390625 62.078125 27.5625 62.902344 26.546875 62.902344 Z M 31.652344 68.148438 C 30.636719 68.148438 29.8125 67.324219 29.8125 66.308594 C 29.8125 65.289062 30.636719 64.46875 31.652344 64.46875 C 32.671875 64.46875 33.492188 65.292969 33.492188 66.308594 C 33.496094 67.324219 32.671875 68.148438 31.652344 68.148438 Z M 31.652344 68.148438 " fill-opacity="1" fill-rule="nonzero"/></svg>